<mxfile host="Electron" modified="2024-05-24T20:43:43.755Z" agent="Mozilla/5.0 (X11; Linux x86_64) AppleWebKit/537.36 (KHTML, like Gecko) draw.io/24.4.0 Chrome/120.0.6099.109 Electron/28.1.0 Safari/537.36" etag="gEALCjKwRzlVrJoEga9m" version="24.4.0" type="device">
  <diagram name="Page-1" id="8fvh-Ux8Tq4-UsCsfz6x">
    <mxGraphModel dx="1114" dy="834" grid="1" gridSize="10" guides="1" tooltips="1" connect="1" arrows="1" fold="1" page="1" pageScale="1" pageWidth="850" pageHeight="1100" math="0" shadow="0">
      <root>
        <mxCell id="0" />
        <mxCell id="1" parent="0" />
        <mxCell id="xjqkXMvStgawzbpbz8GZ-15" value="" style="ellipse;shape=cloud;whiteSpace=wrap;html=1;fillColor=#e1d5e7;strokeColor=#9673a6;fontSize=16;" vertex="1" parent="1">
          <mxGeometry x="240" y="240" width="650" height="420" as="geometry" />
        </mxCell>
        <mxCell id="xjqkXMvStgawzbpbz8GZ-14" value="" style="ellipse;shape=cloud;whiteSpace=wrap;html=1;fillColor=#f8cecc;strokeColor=#b85450;fontSize=16;" vertex="1" parent="1">
          <mxGeometry x="50" y="156.5" width="375" height="160" as="geometry" />
        </mxCell>
        <mxCell id="xjqkXMvStgawzbpbz8GZ-1" value="" style="shape=image;verticalLabelPosition=bottom;labelBackgroundColor=default;verticalAlign=top;aspect=fixed;imageAspect=0;image=data:image/png,iVBORw0KGgoAAAANSUhEUgAAAZAAAABnCAIAAAChPYOOAAAACXBIWXMAAA7EAAAOxAGVKw4bAAAaQ0lEQVR4nO2dd1wUx/vHZ68X7jhAwIKCokjsPcbeFTHYEmMMxoaKgiU2QEVFiIoFNPbEXhKjsRfUxGjUr7FHk9hQ7IqFencc5drvDxKC3M7cXoNbf8/75R/ezuyzA8d+dueZZ56HQuLmCAAAgA1wKnoAAAAATAHBAgCANYBgAQDAGkCwAABgDSBYAACwBhAsAABYAwgWAACsAQQLAADWAIIFAABrAMECAIA1gGABAMAaQLAAAGANIFgAALAGECwAAFgDCBYAAKyB9YIl+9zbI8GfI+VW9EAAAHA4XMSvWtFjsBJKQLlH+7n09eRVE0o6uRVeVxlydRU9KAAAHAhbBYvrya+UWFvYVFb8kePClfTw0L0s0j0pqNiBAQDgOFgpWIJ6Us9ldXiVBaUPUjxK3F7BkXELr6uQsaKGBgCAA2GfYEl6enjM8aNE9N43QaBU1MSl4JLSWGgo54EBAOBoWCVYHKSI8JEPr4I4FKEX10sg6epWdFujz9CW29AAACgHWCNYHBnXI6G2uIOCUWcxV9LN3aDSa1M1jh4YAADlBksEi4O8VgcKAsTMz6A4lKiVnFdFWHhFhQzg0wKA9wF2xGFJgz151YVWnCjp5ub5TR2ut8B8VwAAnB4WCBYl4siHVbb6dH4tsdfausImMjsOCQCACoEFU0L5YG9RS7ktFigBR9LVDelR0d959hoVAADlj7MLFkfGdY+tSfFIy4KMoChhU5kgQFzwuxLpwKUFAKyEV9EDMIOorWtRan6Zg5SIEgRIrLDG9RJQfMoIwfAAwE4oJG5e0WOwBrdoX0lnN4tO0T4uyJh236DSO2hItnPmxLe4pkGh0W/eZpm1IBYLt22Y71mJ/jej1+tHjYt//OQlbau7m7xP7/Y9urb2qebNcMAlpL/KOHX68tHj59NfZZjtXP+DWquXR+NaCwuL1n7304HDZ5hcN2722I7t6f+Afzl9KXnl93l5ZZ92Voxq07aD23YeNT2+ftXMunX8GNpnzt4Dp1au/ZHcp2e3j3p0a920cV0OxzI3dK5Sfebs1aPHz6fef0rboU9Q+2mTh1pk01KO/3xh0dIt1p3r1G9Y/Po001Xdk0yjujBn6VNeZYHgAylzawal3qB2XrVCCHVs3wzXJBTymVjYtmH+J/274lpHjI2jVasqlSutXh7VP6Qzk0vgGPxpD4TQkZRzkV8tfvI0ndBTLnch/KQIoR7dWu/clRI6MtbsRevX88eZ6ti+2ahhfbv2Hvfw0QuzdsijOnXmMu3x5k0/aN70AybGLeLmX6mE1tiYsGmThsrlFvzllyEkuENS4pSr129HfrX40pW/y7RWqVyJ/O3YDu6RyQTnFSxxvybS0A9Nj+vS3ubGHjQW6TNnP/JaE8A8ZEHYSOoy0Ev90xu7DtOJiI0JI6jV14mbtmw/bHq8ccOAUylrPdxd7TKGPkHtO7Zr3uPjiIuX/7LFzheDg+6mPk5YtNEWI36+VU8cWlWnYX9bjDgPIpHg0J7k7l1pbgoraNGs3sXftoR8MuXwsbN2MVg+OGlYA0culnxK/6rP8/eUTe2OKMqg1mXEpBnzLNgzKB9ehe8nstMYnYsBfbvMjw3HtX7/4/HZcWtMj7vKXQ7vTbaXWhUjk0kO7F5mu834OeP8fG1dEartX33urDE2GnESkhdPtZdalbB7xyL/Wj72telQnFSwJKGtKCH27U/Q3Fc69EOEkO5FYWb8I+aB7BSfcp/p56w/NAmKIq2TNmsSuHNzAq71/IUbX4yYTdsUM31EdR+LPVZm8fZyJ8gE8Ud5h2+WTbN9MPNmjalVs5rZboRRkX/5dof2ck0b1w0PG2j3a4lEgjkxo81e3XlwxnuX5+ch6lyX3Ecc0ljUJRAhVPiHKnv5cwuM+4ooIfvSkxqNWFGu7O1xZN9ykYh+anz/wdOQT6bgzh0/5lM7DI6OsOH9cE34H6UsH/fu0LtnW0KHo8fPM7GzenmU2T6EURF++Y6A9nKTIj530OUG9uti9urOgzP6sFzGdmDyFHYJ76DPVGtvPtecyOT7Cl0GepXD2JwNkUhweG9ylcqVaFszMnN6hkRm5yhpW3t1byOTYaNDMjJzbt1+SL56vQ9q4lYkxWJhcK92DAWFwKrkqFr1QnCtm7cdGj/mkxbN6pGN9Orepm+fjgeP/GbjYJhz687DjIwc6859kPbM9GC/kE6EUy5c/FOrJaXbrVG9ck0/+vm1VCpu+1Hj//1+s/hj+quM385dJ4/Qz7eKb40qtE2vXmfeS31CPv1u6mNyBwJOJ1jCtv68Osykh0PJp/fIid6vf56d+91Lno9Q9KE9fTFOBe65t3n9PNztmp9f2LvfxEePsSsyXTu3xDWl3n/auuNwnNKV4O4mv3ZhB87T1KlDc1rBsugZXtOvamxMWPzCDbgOEZMTL53datbOyqQZJ09dzM8vxHUgjMqKl47Z89YwjMxgQsvm9VzlLrjW3v0mppy8YNbIrynrOndsQdvUolm9EsE6knLuSMo5sql5s8bgpvxHU86HjY83Oxirca4pIcXnSoe3saC/iO8aG8xRiJERZX39WJtmPuhGn6FFOvbl9qP1LMTGhBUHE9ASOjL2yrXbBJvt2zbFNW3cesCsWiGEsrKVO3cdx7W2ad2Y9rilXpL5seG45zlC6PLVW1t3HDFrpLqPd2x0GKEDYVRWuHXs6wlq16YJrunO3UdM1AohtHr9blxT/Xq1rBkWHY52gTmXYIn7NeG4WRbCzvGQymODKRHfWGjMnJWmzya9GBfdznsTfteodepZOi2mfwfkZcGp0cn7Dv5Kttmgnj+u6dofdxkO7I+b2J4fBPrRHrfiT/qbZdMJrTFzVhFenf7rNn1E3QBfXKt9ne72vW/rfYAVlKvX7zA0cuNPbHhXtap2c6c42mXvRILFcZOIB2Cf+QR4vh7y6T0QRemzdZkxacZCej3SnMh8O+2BM0e6EygzK2nUoM72jfNxndd8uyfpm51kg5U8FFIpNr/YPcZehvsPaBwuxbgp5ApXmiQZVnh1Q4I7BPXAvnqnv8qYm7CeiZ01+Ah7+zrd7eu69q+JjTxg7g9Ke4hdm7JjXIujXfZOJFjSLz+i+Fau3/Eb+7iEtUMIaR/lZ339uGwRCr0xZ9WL7KRnSM++d6tiSt8Alb09ju5fIZHQB5QdPnY2YnKiWYPkaIbnL5iG1756nWnpVQg385On6bh3pVXJpJW+JcnbCDdkCV06tRw0sDttk319WPYVLMKM+GX6W+Z2cLu73N1syoZSGkcvMjqLYFFSobB9bVssiHrWEwc3RAgVXMrN3fCfp9mg1mVEP8g7bMH36oSU3jJ2eG+yTzX6d/g/bt77bGgME4Nenu64JpXKgrzS5B2ObnR3Agefkn/L9sNxC+g3VNaqWW3OzNG0TcVMnr6M0FrC8iVTaddGCaOydL+edacQqOSBzQyelZXL3M7rN/RflkJht2xxhF+jfew71DpzjHmFqhWnbDQiHf6RoLkvQkj90xvNiUyEkO5ZwZvxqYV/vj9psH7YugC3LPj02augvhOYeHMQQu7u2IeqOs9uifCteHQnLtt6995j2qa42WMJse9HUs6d+OX3ko8/7D5B261K5UrzZo21dFQVC2HnoJrx7m6EUKOWgylJC9N/XjXo3zqdEKcIa+DIpAZVXuG5B9zKrpLP6FdeGUFRsqndc2P2655kZi9/ps/Uqfa8NmrYtyZoyuTIIUql2r+WD25ZUKXS9Oo7AfcINUUuw94DGo1l+Xc0mgLc/JT2TjM7aQgbH3/+FP0uwhVLp/X9FBsHO3Hqkns39xX/P2Jyom+NKm1aNzLtNmXiF5u3Hfr7dhrDUVkxzRk0sFujBhbMGJau2KFW0z8naP2AJVj6ZTkaR/uwKlqwuBx5ZCi/fu2sKYlGdZ5mzzVuVYUtc0NKwJXH9s6J2mfIzFNuJeUMYBdfTRhCaNVqdX0GTr5z9xFzg1wu1l2o11sm8YVFRTjBkohpjptdSPrf7ze3f39s6JDepk0hwR1692x77MT/aE9Mvf902YodUyeFFl9lZHjcrWt7uFyaacT6VbPadhnJcFS4+R1hKfCzT7DhJrSs37gPJ1g8Hsmxq9c71yLS+zwlpFykboumi7q35Vb1VsyLQDwuQki1+rT2lk1Cw1FIXGODKQmjfCzvB0NHzTl73kx0chkIf1iWrkwXFBThmsRia0qHIISmRCXhXGnrVs4UCv/bh1Rm707cgm/fZmQjhCiKupf65Js1u2iNtGndaFhoH+vGVs6Q3WFOvvXP7lSYYHGrermvmMn/N8CEH+gvnzwcIYR0BmViij7dAlcijXEfN3lUELne6vsEeVsGLYTbwFKHMUGwRCIrBSsjMydq9je0TdV9vKOmDiv5OGPKsBrV/6tRolJpomNXlnycm7AOt465dOFkws4k54H8zmJf777zUzE/raBJoPvyWVzvd3bAiTq1kg7ujRAyarTK+KMGlU2Tc379Ki7hHWwaJXvYsSm+UYM6Fp2i02GnEuQ5iCkEuaS92Ri6OdZ+9xMuUj9m2ogSkeLzeUmJ73i1Nm09dPX6bYPBiBBSqTSTpi2lNVLJQ7EgLpLJqAwG+jmyHZfwCaYMxGQkzvaGRR6t7VSAYElCuirmT6bovB7S0L7Ctk0RQvo3KmXCMWORTfNzUZdAcX/snob3CbFYeHhvMmG7mSkEwSK4t2jh87GeUNqrML/FRoXPp72TRSLByqQZxf/ncKiB/bp0aPdOksyIyYklWrl778+nf7tKaz9i7KcN69c2OyorfFiWQjBF9lLReugqEEf7sMrX6c7lyCNDRd1JCUPk00blZCZr76bp0t6qlv0sj+5pS7S/dEgrQ3pu4UULvNHOyeWrt/LzCxUKl8YNA2g71Kheec/OxB4fRzA0qNVZ9lpEgCBYtC9fzN9L/rr1YPX6PZHhg0ybimPfU05eKH6kr0qe0ajl4JLWy1dvle48OiLhwd8HTI1QFLVhbeyHHYaRR2XFG9adu4/evM3GWjShsBA7rSZ8U8j5poSOfsMqP8GiXKSKuZF8/K6of7rx+Yp5EVmTFuhfZxRde5K3/aL0y49suCrlMqmr/u1BXRq7A0dDR8bef/AUIXTulw24rbDdu364KH5CaQ8OAcI8jiBAtAgE2P5FRVqLTJkyc+6qTwd08/aiCXNdvTy6JPNMw/q1x4/5dM23e2iNpD18/nXipllRI02bWrWoP3pE/+8277dxnGWYv/C7XXtO2sUU4V0YWf5lsZ1y+mm5Vb0U8ZPKOK1wUC5SRfzErMkLjJqC/EN/cn3cinP1WQfF58pn986N2qd/o7LaiPMwKDT65uUfcFmooqYOu3z1ltltzwghlQobTCsSWuYpd5FiXddK/FUYolJppkYn79hEk7Gkpl/V5Uumurr+MxH+Om78D7tP4JJMzI5bE/p5EO0elyULJzH5jVUU5EgrkZBpTQOE0OgR/atV9TQ9rjcYCAl8nApHCRY/0F/Q7N+CIlye5OMulMSC24Bb1ds1NiInZhlCSL3uLNfDhd/Y+szTHJlIHhucE73fmMcoCtyZSX+VMSg0+vRx7F7fHZviW7Z7fOuOmdx7OblY+bZ07QwXhIUQysoyn6PGLDt3pYQN79epA02O/9J5OBWusvlzwidMWYyzM2HKkkM/JZked5W7LIyP3LyNpkKHk5Cdo3RT0O8ZsChwZGLEYNoUHUplHlsEyyETYK6nu+u8SOmQj//591mQRWpVjKBhgHzaKIQQMhiVS07qnpA22ZofUhVX11lBiOdcE37rOHP2WsycVbhWsVh4cE+SWQd8To6a0OriwlSzCNvcEEJMkmoxIXziAibdIsMHEXLmHD52FpcBdfSI/hFjHZUt2nYIX5a7mwWJFtwwewZVatbsXbP/DUzx+a7zIjmM/+IJiDq1kg7qjRAyFmiV8UcNOTbtceMFeMsibCq95zwsWrqFkH3Yv5bPjzsWki28ek2qeOrlybRIrRedd6mEFy/t4zq8l/pkweJNTHqSM2eNn7QI1/TF4CCLh1VevHiJTZ7h6Ul6YJQBl/cqO4c13hL7C5Zs0pc8X/NFShgiHRpSHOhgyMlXxh8zFtjkxBW2ry0ZxMpK16aEjogl1Cvt2e2jhLnjCae/fpNFcI6UDsUkQ0jVhGwrmVmGhMSNT5+9Mtutc8cWA/p2wbU+ffaKttyZk0OoBUvIPFMGwr7xt5YsaFYsdhYsSUhXUadW9rRIUfJpo3h1/BBCuieZyiUnmRf1okUyqIWNeWwqBNMV9Jxc1YDBpLeJWVEj+/bpSOhwP42+WDlCqFWL+gwH1rgRNmAVV4zAunjL/PxCJnm+EELJi7G7oxFCXyduoq3yQKDCC8kQsvQx/6ZaNMMWqSa8wVkKm/Jh8RsEuITZ3xFA8fmKuAnFK4zam8/V62wtVCuL6MwLsH8xvvLn+o274yaSpn47NycE1vXDtZqWKS9hxNAQJlkoq/t4jxk5ANd64eJNsxYs4kjKOSZlimtUr0wbwVDC2AmMPGLOA+GbatwwgEl11dr+1b+a8AWu9d59M3VunAe7rRJy3BWus8c5aPseR+5SEuhQ8Otdro9CHEJf4IARPI7rrKCc6P027lgsT3CR0Os27G3ftumQz3rRtkql4kN7kpq1CaXNBHD2/B84uQms65fx/NSNP1Nzc7HuXpFI8GHLBoQxnz5LH19uS4B45FeLu3dpjSvCWMKsGaO2bD+Ce3H49cyV3Xt/xqUeNcWKAX/Sv1tggJ+lZxVz9fqdMnVrCIKFEDp5eHV2jvLPvx7gOlAUKrMToAxXrpKKlViEo7cK2UewKD5fMTfCLo52HNyq3orYyOxZy5DBmLf9EsdLLmxd02prlFQojw3Ojdpn445FZ2B0REKzJoG4N6k6tWvs2ragz4DJpk1m6/Q1aUQfVc8EjaZg/6EzVp+O4+mzV3ELvl04P5LcTSwWJiZMCB0Zi+vw1YykkOCOZoXPagb261KmQClz1m/cV0aw8vLyyQrrppB3bE+SJAJqtaZ04kMnxz5TQtmkL3n+NexiigBHIaM4XIQQMhrVK07ZGLzO9ZLJZ/e2Oot8OUN4bmk0Bf0HTyMkGg3u1S5uNk2OTbVas2nrIbsMz5StO4/gEjzZ+AxetHQLLiVpaUKCSf67l+lvZ87FhoaUwRk2GK/fuM9Bln/86Wc7WmNB1RxxcCc7O9pp0RtyE78z/ruvyqjVKxOO2Ri8zvP3dJnU1eG/Y8dz997jkeFxhA5zZo7uE9Te9HjySjPFdaxm2YodDrKMEBo3yUzQBhOSV35fJumoM/PrmSvkKpNWE7+IHSGjxdgqWPzAWrKxg833sxn1zkO6x++URTGoCpTxR40a2wIdWteUfuF4tbUZs2svu/acXLUOWykTIbRr24KAOmXfgv++nRbuAA/0l2FzCDVsbF9HOnP22s5dKeQ+TJaryEsWFpkqBwZ/GUOuUWQFU6KSCMExVuDUZb447grXWEc52kuje/BEs4empoA+PVeZmGJjJWdxvya27FV0HiZMWXz1OvYhLJWKD+5OMg1hX79xX1DfieTiN8zJzMr9ZMiM7d8fs4s1AtGxK9NfkWJfmXD+wo1DR21ddC43Hj560aLt0FOnL9vL4PSZK5JXfm8va+WDDYLF4yrmRnBc7VbRDIexSJeb+B0y0quS9la6avVpGy/hEt7Blr2K5QDDh/zAz2cQdsME1vWjLb96/OcLvnX7DBg8feuOI9apwOs3WTt3pXw+bKZP7aC9B8xsJLbLC8vzF2/adwsrk0bmnauULU5Jz/DR837YfYK8wdhJ3rAQQi9evukWPL51x+GLk7Zdv8G0OndplMq8w8fOjo1c4FGty9Ll2+0+Qkf/rigktjLyWxYZKu5F4xZhju5puhG/al5C/qkLBb9cIPeRDGouGWRDuR2EjAXanOj9+uesCfkFgP+HWC9YXkcYFQfHoUt7mj1tsVFra76kEmSTutoYwm7IzMuJ2mvIsaDQGwAA5UnFZC8wqDU5cavtqFbILuV2PKTy2GBKwI5ABwD4f0hFpCs0GnIT1hqycoo/SUP6CvzNF1DQPnygPkiT5fY/dAbl4hOKhf25VS1IuFEGnq+HsFPdgpMOWT8GAMBGKkCw1Fv2a/9OLf6/qFVraS+aepmm8OvU0b18WXCFtERizCtUJhx1TRzAkWFTyplFb1viLQAAHEd5TwkLL1zX7P031zWXKxuC3ZBpimzoMF51M/H0/5Tb0Vpbbkdn0LI8+zsAvMeUq2Dpn71SLttc6rNec+oU89MpHk8xPoIjMbNjUZf2Vr3ilHURbLrHmTZGdQEA4DjKT7CM+QU581cZ3y1npEk5qs+wYArGcVW4jh2HKDPDLrz4KG+HNfF12vuvrTgLAIDyofwEK3fxBn162dmWUadV7dhikR1+nQCXkBCz3fIP3ij41eLIOl0qCBYAOC/lJFh5u48VXfmLtqkoNbXg8iWLrEl6BgkaNDTbTb3urPYmdkcbLbpUu6VeBADA7pSHYBXduJu3nVRDSb3nR2O+ZQUmXEeFcT1pKqy9g4XldgyqAv1r+1R5AQDAEThcsPRvs3IXrMPtBCzGkJenPkCMsTKBEopcwyPMZoYxFmhVS5mm+9HdM1/jAACACsTBgqXT585fY9SY3+xiyDO/qbAMxsJCJkuBHE8zFfpK0N2HgAYAcGocK1jqzft0jxhVKOFWYlTFvjQF58+Z74SQoFF1hga14HEHAOfG+kh37V/3yR10z9M1B39hak6n1943Y7A0RoOh4NoVJj0pEZfhHkPdA/C4A4BTY322BgAAgHKmYrI1AAAAWAEIFgAArAEECwAA1gCCBQAAawDBAgCANYBgAQDAGkCwAABgDSBYAACwBhAsAABYAwgWAACsAQQLAADWAIIFAABrAMECAIA1gGABAMAaQLAAAGANIFgAALAGECwAAFgDCBYAAKwBBAsAANYAggUAAGsAwQIAgDWAYAEAwBr+D5rV3+cGkxX7AAAAAElFTkSuQmCC;fontStyle=1;fontSize=16;" vertex="1" parent="1">
          <mxGeometry x="140" y="210" width="205.83" height="53" as="geometry" />
        </mxCell>
        <mxCell id="xjqkXMvStgawzbpbz8GZ-2" value="Docker" style="rounded=1;whiteSpace=wrap;html=1;verticalAlign=top;fillColor=#d5e8d4;strokeColor=#82b366;fontStyle=1;fontSize=16;" vertex="1" parent="1">
          <mxGeometry x="370" y="360" width="430" height="190" as="geometry" />
        </mxCell>
        <mxCell id="xjqkXMvStgawzbpbz8GZ-22" style="edgeStyle=orthogonalEdgeStyle;rounded=0;orthogonalLoop=1;jettySize=auto;html=1;entryX=0;entryY=0.5;entryDx=0;entryDy=0;fontSize=16;" edge="1" parent="1" source="xjqkXMvStgawzbpbz8GZ-3" target="xjqkXMvStgawzbpbz8GZ-20">
          <mxGeometry relative="1" as="geometry" />
        </mxCell>
        <mxCell id="xjqkXMvStgawzbpbz8GZ-3" value="Kong Gateway" style="shape=image;verticalLabelPosition=bottom;labelBackgroundColor=default;verticalAlign=top;aspect=fixed;imageAspect=0;image=data:image/png,iVBORw0KGgoAAAANSUhEUgAAAPgAAADuCAIAAACbPF3aAAAACXBIWXMAAA7EAAAOxAGVKw4bAAAgAElEQVR4nOy9ebhlZ1Xn/11rve+79z7n3ltjZkiYIhAyQSCMtog4oIAQFFEExYFWwAYH0JbuRv050ANtO2AjNA7t0Ci0iKAydJAwSAyZSIpUJjJUxqpKDffec87e+x3W+v1xk0oZKpCCurnnVp3Ps5+qW0/d55x37/3da693vWutl8wMM2Yc7fBaD2DGjIeDmdBnHBPMhD7jmGAm9BnHBDOhzzgmmAl9xjHBTOgzjglmQp9xTDAT+oxjgpnQZxwTzIQ+45hgJvQZxwQzoc84JpgJfcYxwUzoM44JZkKfcUwwE/qMY4KZ0GccE8yEvo75yjJIM5vVRh4Sml2Xo4+vvKdEtCYjmR5mQp9xTODWegAzvlEeYKpmxvuQzIS+vrH7wEESf7C3NPOxOyU7ds98HWHQAmQg6r0KzkAEYBlArzFRIRJWXubRn1371zeM7265ZYsZ3BlTZiaODOSUoQkFplAtpgZA1/DMHj5mPvp6oABkIAJgKJnMg6Ew5oIChevESnv73L7fueyvP7njS6fOb/zlc1593qYnQaNUrk3qyOXSNW5gbMXUkShZAgngDDgGnJ2Z0NcDhgQQmbMCAAQY0Gd1tTqkUiqWa8Y3/tbF7726vfXEemPXj4QW/u0TX/LSRz1bUnFVNcllIHXKyXm/8rhkK8rCgBQlOfpf7DOhrw96ANDKCorBuQKWlf8wgPI/3vHZ39n+4dFkcZPwHl5uMJ8ljiK95ITnvOFpL5tD5ZNLxVlNADxAGWCAkHJyXugY8GBnQl8PJIVjQyGQEU9MzahS4pyltvde+8E/+vJHGbnGMNZMaDMoTCCGvV7P2XD6W876occMTwtmRRWOC7EVrZTABEYhlZnQZ0wDxbKYQy4IEoECawpBsejb/3zFn378zs/MhWA9U+37rvfwRVKDWtVAZdHiyXLcm5/yyvOOP3dYCgyZKTKXnIcsTNxbrDis9SmuOjOhrwMmSAN4KApDs3rKRezWduevfPF923dvn5sPZSlWHIzUhDuiQbJ2YCVp07vg+R7sD3nup05/8Yue8Px5iE4iNY0So+RKnFkhkrU+xVVnJvR1gsIAZYgC1F+0b9tvf+HDd8UvbZStbUYZkGmqslAp7FFMYyFfhRQnJi6ERttJb+Pv2fKSH336d56KeXSqtQMTG8Hud/iPYmZCnyZyghNDIeXCQgWsMFblXIoJVwwkxkdu//Q7r/iL/fX++bzwED94ZS1puSw9Ye7x/+68Hzl/7jGpjz4wwBPiGoWMyQgGlGyeQIJ745lHCTOhTxEGKFRUMxMrcaaJL0wIECixYaKjP7jmb993wyc3znkx7Q/nw4mICgPYIMNXPeG7Ljjtuch+JDYHIMcUJEM8SKAAciqe/NG0bj4T+hTRAk2y4ooQULAkqOBEUzZfm96Tdr992/svvPtfNgcXk7FryPJhfX7PzXwcjbhjGfzwqS949RNfNLAQY4+KHbFBDKqWPBxBcobzq3Sia8BM6NNEhjn0Gj07Me5KUceDNsfGX794w29d9r+vHd20ZTBsU65cNbJUl8PzLRg09mUY1Vh2WXnBpvN+8Zzv39oc1/WxCTV0JbiuUANLProSoWZCnxbMjJSKQExzn8x5L9z1XV2Hj9/5+Xdc+cHFsncYKObkpB6VuIl9PMyvyNxJ9OyqTAqn41jOrE/7ubMvOHfzWX0fQxOgMC0sZKbER5POZ0KfGsxsQmVQWFVFXBdjVbuE9N7tn/jzGz5QU1WqoKkzLpUXmVgnQnx4CVkFhZRqV8cYyQuJ9OPJxsH8q05/6Use/ay6+GwojjklL6JQPoq0PhP6VHBvnm0q4wAP7nIZOlnudv/+tg996LaL/YK6TmrXjKlw29ZOoncuc6HD89GJxKwYGxWlSHAu1UiIMqle8Zjn/MiTvntAC23SeR9KzuT4aFoxnQl9KljJKW9Zq2hZra7CNUu3/N6Vf/OFvVfO1YWxoMhaese+uCrn7A3qM5fDi38rOynKmkqQ7IgzJAJMwGgxyjef9PSfPfuCR/mTOhRz1BgfTVmNM6GvARHqwVQAwASKzLCouSqkLMz+Mzuvece2990yuf74wcKyuqqkVR0PmVRiO9ulx2x83BvP/MF/s+WMrEaSxcQIBEUukKoQctHqK1IdzWz6y5pmQl8LskK4ECJKgEgBsmUHE/Kq77vrwt++6v/UfV4IW/Za79Cu9rywaFDrN1R+Xzf2svD6M170A6c9D/CmSClx7RUaSoYCLmRal9GYmdDXAgVMo3QFQhOt60YL2LDk4u9c9/4P3viRjbWXKJ0JnAvMZbUtOsnIE7X9cZ5GHLuWL3jEt732zAs2+TlVMKNXzdY2zqMQq8c6jK/PhL4GmAIlkrcE9uZzp31V7sG+d13yF5+6ZxvVMtdLphyl9963Hder7BdETBqai+yp7+aD7eGkMXzzwhk/dfaLH7nhUdKJCGWPFEeNVEZ+PdZpzIS+FhgyqaXEUvVJB563j6//T5f+2ZcXrzyxOW15ojbHhk6KaVInhFXOLqwtFZNOudRBU6xUQ+3vnuw7Y+4xbzzrpc867imaHANRLCEPi8AfQulT7qnPhL4GGJBNmVgSwPjc3m3/5dPv2TnYNx/qrs2Vr7vYu8abGhV4o7Qyb101qizLPldetM0ZXDtPJaUGo7Yb0NzrTn/hD576rQiD3uBT4YCVB2/Klf0A1uFLaP1TUDyYDaZpUUbvvebvb52fbCa33PphkKzLrnI0LtJHpRzdqt+j/R5ekScTcto4ZlVlieO0UQZa6duvff9vXP9X+9tdXktbSdICQFXNbOXP1R7eEWEm9DXAmSkZJaDCR+68ZMfeHRsTLTkZSj8pohjkHHUA8nUoXMryao+nsSSwqmqMfKe5t6IoVVVR9r6Nmwb0gZsufMvlf3Fde/dQYcKqqqqllBWhrwutz1yXh4MDDYbuu9ZZwQZO7fg1V7z9unuu2xy2qpnh8FY6V5viteqZC5Whu2ey/Oj6xJ865yXfddzTWgSXk2lmH1ZaCThoRifWHOzMTJVvM7PoawCZFrBT/M2OT167fPvmeqPmgsNLL384yFmToRB148nm+bnd7e7f/eRfvOuWj3lS8uxZwGBkLr0qXBk8QNbTo3LMhL6qHHhbEtH9/eJgRhwK7ul3fuD2fyoWWZ1CdfqWYSoOYOI6OOfapaUwJ6Ot+u4r/+ZtF/+vUbeXjFLJCgOMldty78lOpzMzE/oq8pUmzWBm1sFB8Tc7PnNbd9eJNOxyNKdJpk7plJL3fqkdkw/zg/k0agPKXMP/dNdn33DJH2yPtzUWyriw1L0zH2hF4gc/1dPDTOgPHwcagjaGGye3fGDHRUOuuBP27FAsT12FshFi7OoQNJe2L04G1tkgi9/gr9q7/Wc+9/sX3n1xU4c2aclFrJRSptCWrzAT+sPH/e90w/tuu+iOfk9Ng4ljI3WKUKbvXgTHDNaCXEIIVNXLJfeOU5QThvN93P3Wy97zB9d/kH0cOEfdA0ONUyX66bu4RxeH3HziqqVrPnnXZZu4SmYSLOdscMKruyr0ddB1UcSDlKlojrHrfF0Vx/NWtRFVVW0YuPdc93e/dPEf3tXd2TfKzFPotKwwE/qqc7DWV/zX99/4T/v7vfPqE5nvlk24cIg8WcNBHpIhNznnjEKe2LQGmqyS+kmakEjkqu3y5iZ8ZvcX33TRu27ce7OIfM0e7WvFLI6+imSYy4CQGhKjSho9Ltl9/S9f8g4iYgYZDp7A6YNUOgQgpV4dq/elywu+ySVFUZ6OW2dmKxbzDY//vu9/zPMyudRPKidAxYbeoVrrEWJm0VcVZ5QoAYkZArRsKKMP3Pj/CmlhzbBMlqkU1sKaqTDskMeYEZsgdU1dCiwTysuI0+MkHAiz/M/rP/Bfrvw/k3a58YOklqQHq0zHTgNTF9I6qjAUEQ/VkhC5bugzN19+6a5Lva/vvftkAJMBBgAFhzbRPpsQa9uJMHtOOVXiqOTVzmo8LIgo5+W/3nnRzd2+t57ziq2DLV5Ttt5ZNQ0leTOLvooUKx5kxpkcNzzS/e++7VNxoMLGpIRCpgwjMiIjKDk75AG2xMUNaudc6trAxAahqTNSpV7YmuOld//zWz//R20cZ3POGthUaGzqLtbRBHFmq1JBETDyh7dddMni7Qvslq2/N9RIKiCie2dKFg/9lhfxLYFTnic3qOqx9iahZBKaDif9PkKWMWFhYfMbz/72TX5hDCVCyFNhTmdCX0WMWLMJERIcEot/7anPTVqEHQCDAhDcH6Z4sF3jyHpW3qPdp+/cts/6AA5GE7IpclwAM4sYN9j0tjNf9ZQt52mn0lCIKQc/DSKbRV1WkQy1Xn3lrCiVOA42NI7EwQ5ddGkP6sv2pDzh/Ltf/L8fuvGT1bxYyuwbW+Va0ofIgaiLp/C2M175zac8s+szhuKgAqLE01BjOg0P21ELgR1TtL4IJanmI6FYaChaWQlTCNHB2x/Sg7qzVRfhwD93zktTu/f/3v0vYcNg03Ls/drP8u51uswA/NJZP/T0Rz59sU9zAzLrszlXpPOpngKlT4H3dBRxcOKemYmh8xSiNOoFyB5oKJkyCxETsYIUcuAwkBJRITLqiAoRZSIjS8nqorWEyfDfnf9jz9l6Vl5sXfAtik8awCYOmUj8MsVq9VdYs3fStgEwck4ZgkEZ/vx5r33+I59RUvaV46yRUDMg5qZA5ZgJ/chycOIeEQG5TlFdHnE3QPGWsnWeikM65AFEIBd04CzWs0X4POZEwXPXOxQ02FDqH3/KSx+7cNqu0s9zSDX3GmPsUs3Wp41ZRnnVqzdKF6v5+XHqzUvnbZz6805+9Pee+MRxn2sfmpTgZNC7Hi4z3HTE0WdCX0XG5LIRc+3Uj4vCxGnICoM/5MEUxkByASpMIVEYdWlojKhVNUBJhbJ59+TB499w9ss2l0GLojGVQFVwPhfyIspcrfpCZCO+67qmGVLba0xU+evvuf2q3dcNfdivPakRUWQhA1RhU5HDMxP6KjJUxKJjtWDOmXQCCDP5UuzQR9JapTJGgXaZswYWGCOUTHBck2kHQ49v2XL2zzz5ZWgLh8qDESObqmpuKsurHl0gaCHuS2bGgvM1yQ39rt/a9qG9aXGOKXuGcvIUDI5kSvalngn9yHPATW+5G1R+CCJB7SigjLVnghM75EGiAUYpw5ML5ElD4BZtZ71lwMAaGjN49AkveORzfvRJ3znqjbJzLkxYUTL4cHfB+HpQM/JhDO1qZJTQ2ULdXD++/d3X/J1HiezabHWXjXMhhU1FwGMqBnE0cWA+SkQ16suWdu3ZPymezWljiOyIfS6HLg9dCS+WUhhElV+muDBO33H86c4Vc9ACJhgssZpj7fXVp7/wjj2Lf7/z8lBzxc6YbNxVlVddZbF7Km3cVFd96bocBzTkWOqK/nbHRU847pSXnPy8jiAo2SySG0yHMZ3F0Y8wK91OVmaly2N65mV/ft3S/o1WJe6t75Nfadh86PkZm/ZMVVXZUquex7UujNPPnvHc/3DGeQXmSjaj3oFhjbFBNGvnR2/53HsvvfuqzfPNMrJrE5yAV9dbMCtUXAWGS5m5ZGbHSboY8wmDU//r2T/2TZsfa6qwouKnxHeRX/mVX1nrMRxtHLDo77jlC391y5UnVFtMkR3myFs9GGbHXpy4QxzOVebUUA+Gg0iNhDh0n95146No41lbtnAaRaKhVd44cRYiJgb43JNOuvKu6++M++qsOqwp62rvm0gwa+pOc0Ei57IKA770wbv9e/ffVfpvecSZFonYO0OiJFOQfDaz6EcCU1NWAjNU+1IK+8GN+5e+5fPvP1An+o18fEH64FNf9tzjTxxxNsi8EkzBBeZ7RgCu2rf9Lf/8P5f8fi+BWiaXErMaVWqkVoQAdiaK1Q2AOFV1vFvzz5z+Pa993IuiVkxw97lka2vXp8J/Wu9ksswQgHJRJoYQ8Ns3fT7GmHP+xvu2GcJrLv3g9snSXIbrx2CFUkcelB2Qez170+lvPOcCbUOVHTt1CCGKdSWEgYEV5llW3XEHCmOU+xMofPCLF/3T/usCKxlW+eF6qMyEfgSwlT3GFXA0QXFUfeqO2/9i13UH1o++0SIJ9nfCfvjiD9ydU+OqhJw9uYRChaHsmcbyglO++aefdMH+pVYcWVSr3HFhrhu1nWOvklLPbvVNKkmoKsl5d2j/6IqP3KX3MCcQDLZSSrXqA3hwZkI/AngQm3W5i4CHa9V+5+ZLJpmdcyLyYDmJDx3WssWaK/r2dVf+YxZfSu6hzhCB1nJhJKFs8kOPe/4FZzx/cSmmOZdiN0FPnoOyEYv4WB6WuGPKsXHB4+bFm//XF//BUEyPwDvtG2cm9COARVUGV5JSP1D/Vzu+9MnFOzeX+kC/2YPd9K/HumvfopxWFj686843Xv7/ah5w30WffAlGnlPvarSMbO4tZ3zvs0556p5+PA9e8hHeBn0pRMzO0arf61JKcNW47xoy8+UzO6++Y/9d/XRsGzAVg1jvKGkLsPFQmr1teufNlyZjIad6bxiRmQ/Y9a/Dtnk252lJ80ad+8O7r//vX76ikQFrIaKBwTH37TgAlFXK4M3n/sB59an7SlmQyvq+D/AFqRTjVQ99sBMt2Eh1Kpkrykj70wTMa27OMRP6EYGZFaWUkgjv2XHFleN75hGy3Jvj9QAT/nXc9axkMefGiGxo1Vtv+NxHdt6apVZVSxmgqqoE1pAsUnmEHP/mc39oiz8Oy1r5OldipiSscdWbmCppSsnDZ/a5j46JiA7kLq5tNfdM6EcA0uJVxftbFxffdesXJDTuvijHiveywsovfx0uewl1cbYQo1KsjUN2P3nFh65a3uM494HHZGrkivWcNqjfJ/msjU94y1N/YMTSmQ0nZVxTtDS3+r0dHYiIWzOAB+y7koLzkqaire5M6IdD0XxvBRwsKhJ6IAMJSCyu0H+7+bJburQx1Rn3p6c+wK5/Pa5LKc6kJQZTthhY4Ocv+Je/vzlNQpYmcUJPpfUsveehUc79czef9/pzXqZtv0TZFarZjbR4dWKiCgivPHhEpEdUhAGs1FVq2bhm7kHmbKWD1yzqsm4wJgXBNBlSYAhCUc6FBPMmn95991/fctXWZiGAuhIfvC7u8L/3vqXWlT9VNcbYtu0bPv/xPdqzV1DowpA7c5adMnxYQvvqR3zrix/z7X1NC5A4UudcLClDmUFqXhwZUkoiR9h3f8CTs+YSX2Em9MODARABulJARgR1UM054v+7+fP7AOQCb8gJR3QX3IMbeq0o3sz+ac/uX7ry45m9ZtOCEpwkAlunmANbpH93ziueNzhzZ7dvrpJizjeeHEE451g0Oeecc7kcsRUdNXuwx3vNtT4T+mFARg4Akyf2uQBaGD00SPXnt237f/vv3NpsIcOitoMqUDnylTUHTDszi8iGqnn/3be+7erPDLyXkidADmKItQkp9S5Wvfv35/3kU+cftcftZ2rGfRdzAjSEoLmUnJn5wOThSI6T7h/tlDAT+uFA97rpZsZAEYmlDIrsyeU/3/ovC9FnUykE4UzG5Yjd5oOt+Mq89r7IfF9x/d+/fMV7d2yrvHOpU6gpG0NZauIulM1h/i1Pf/Uj+ISltD+4Kjjf94mZ2YmalVLkG17P+ppMg+JnQj8MMhmYAUQtneMO5guT8buuv+zG5X0b4JBTIhtQSKXYkcuVPeC3HOjLvCKdJGwava9+afvn/2HXjsaLi725UAjFVOEHsP1l/6nDJ/z8Ga/eEjxiqTgwuUkfiZ2ImJkcuWwrJRhwcJLwwaXiR+pbvj5mQj88jOBArBahXNSJXNLufvdNV8+hTgESszWhtFpJKEd6F9yD/ZYDMUqqvEQbFfzCtk9ePVqcgLzB5QznCZy6NOeGLuOpJz/5p894mc/ULo0HdU3sCqyYruo2LAc6YRzcEmOtmAn9MHBGvWYYvBIZmsggvOuWS3bkaFVjKZbK+r5n70s2OnL94g72Ww5Wj3S5ZA6+mct6Y7/0+ssu7FEjpwwLEYWtb2qXvXQTtslLHvGdzz7/WaKsKz4VkxKY2Y7oXOKhR1EfZt3PhP6QOGCWamaUvmUMsmhFH91z+/+97bYt3rtSMrNAaiAjCdkRvLYHbPnBfgsRtZUbZlBRQthi85+Z3PXKyz4QzdcCsz7DGgNi7Obqlobc462n/OBzHnXOYj/xblAlTxkZxFQOPkE8hCXMAnPKlblIFq2HJRUiElEPyzWEs26ihdef8/1P3HRaycS496n/RnN+vgFmQn9I3NuoX6Gl9I4DGwQjs3feeIlr16wvnCN0pdeKImUUnef6i3t2/uLVnzLyy16qAssJTagKNuZiNTzJvz/zh87e8rhd5R4iU2YOSJEO9v4fiv4akZ7LPsRhpoEMlH3TooP10pmXvSlvqI9/69Ne+dITz1c4JlvxtY5MxvLXy0zohwELVLyDjBFF8b47r/vH3bcOfLNW4yErEqSPLTyMySWM2L17x7b/ce1lQ3ZtN1ZPAIgZIoBSRFVv+dXzX32m27qko6FSD3D4Vxp4KPVQferYdGDSDUIx5T6P59zGIsFoOedztzzx97/1jedvPTfzoOoKMx3MKl6Or8pM6IeBWRGAjRpx+0r83ZsuJWr6Va5E/ip4hJS1EmZoZ9GLG5hnV/3m9Rd/6NYbq+E85ZKghdARyDSTG8NO9qe89awfOZEX7glpMDLlaAdx4MO/iijZiRmZMLoUtVgTpO33cuSu/v5Tnv3OZ/zbk2jLJDMXyrXH6lc2PRRmQn+orLQzJ0VU8x2/c8fl2xf3beBh1DWrFdMEEw8Sb0RkqUQqeR7SkvuZ6y+8Yt9uz4037lKqDUrmHAYp7tV85vFP/sknv4J7NkcDCiuf9gCL+9XsulJxrEIhl6GJMBuxY/eqJ73kzWe/XIrPhoFwJhMguqloqTIT+kPi3kg2JFkm4av37Hr3jVfWUktKLqxdibuSVGFSCgpVJAXWByyhn5OwP5XXXPKhO2OGYWg+W2JjyxHkN5tEwrdufdabTn/RMtpx5q90Lb66AyPKmrTKUMfmZTzqBpj/9ae++jWP+c4xDYyDY1LkACta/FoHFleYCf0hsRLay9GS5R54187tO6MOXCgl6pHLFTlcuLLcTyonUXPJ1jTDmItzzqzMt3J9ij9x5Uf2d30bMoOKsnonjsVQKwbMF5z+/AtOes44lYNL3Q5MGb+K65JMF6oqIwf2e5fbx2/5pnc+/03fuulpUW2uUyY2dkYAw5lgrTPRV5gJ/WtzwH8tQgPnLt355fft+JJ3A4qFG8bDUIv5IGTqKy2SM3mXmbs2Dswv9BwtOefnefixnTe95aZPANqz5WIGNiSAoeikBGvedNYrnnbSY0spB2fMf82JY2zcpG29uN395Nse/ZR3PPs1j5VHIHrjgtpxUS4QcgWcBTQVzXRnQn8wcjEABhiUiAwiErnt1f23a7eNESrWUYhNIbg16//NxRfxSsxqQuYYRjpxxSSMOHpOG2ThPdff9PvXXBvUs2tdLgSJjsyhMs6sAxq87dzXbR2cRCTkCyz1UCtAUVJjCyVPxMfCGtlboYokGUI2BDcZxR/7pu/51ae89jicmMBAFgOpkvBKwyI2c5gWiU3HKKaP4oQMIBhB1MzJmMq8Dd916xc/u3fHgq991IFy1yc+spULR4SiLmmXk2M8Subecv3H//rOGz0NMyuAAJBaIQqZljSeFOZ//bwfCdSUmJx5X3xfk8CySKI2+IVx9GbWpOh8tah5QDFNOpfqn3vaD7/hCd+L5MYliaa+Xsvo4ddkJvRDcGAiVkxXPNakeVh4FPG+m7ZlEU65rayLPYZVN32XsC7EdSAiKrbHl4Ww8LrLPvypvbsc+QkIfSyWRXPvy7xrKNuZ86e/+dwf6GINduIQektEVHINTKC11JW5LBnaz4vb2beP3vCodzzn37705OckCo13Q4CClGxrGyn/6kzfXZoOnEHJGARDIZSkbPLfb7js8vEe5ytxTlUb8WJUxbUPKTwAJUQyNoxzO/BVKNz68LOX/P3lo93DQnAu55wZjkRVzUmx+O0nPeunz/6he+KEqPXKlsWR9vAhJZd7NcpJrdbJuHvOCc/6j8/86TM3Pp6NTUtCNiEybsgdWP6cQmZCfxAMGUQggxkwDOGydtf7dnypeN+zRUtzyRg00eSn79YmsqzFKRofMGlHFS2guWa0/ObL/nEfgMxaBctFikKkAOxooviRxz7vZY9+zlLXWtDijMjDu5XNfhWF55vFpfQdj/7mt53/E98UTsoQOAt97+CIncWU5IGT8qkS/Uzoh4CIQAAUWhIRKaB4z80Xb5/sPYUHG6KlkpUlEmWy6ehz/68Qslp8BoGkH7j5UeygxzXz/7S067WX/O1yBZ8kcBXZBHDJCL4h5KK/+MRXPPfEZ+zqFi1oKYI44mrQk0woaWuvO+P7/8OTX3OCzo00NjFpTNYMyBATSkUBq95O4xthJvQHgWArVQQAqcFwkp8fet/mTmMfmnoMrXwdkrnV3xzrcPEkOuk7QnFOxx08DXJuLW5qjvvAndf96vbPwSGyBpLeCoRUmVIrAs9zv3jmD5+18IRBcQmZHIW+aLItuvk/Pe3Hfvxx303LJVtaAJfKlVBr0lKgHgAjr/reSd8Is/7oh0BVCQQCE7ESiIjxjOMfvbMtX1i6rQwrmeQqVKN2QoNQuDz4/qBrg5bEgwHAzThVwS/6EtTUwY8lzA2vuuuGoffP2vQImArxhMwxgchMM8u8DM/aeNpHb7nM3MSp24fx4+dP+Y3n/NQz5s7KUTHkJCbGwiIgUBEpzsyymOOVAqOp8lgOMBWtCNYKxaTAMYIYYPd18FaAYTCimCA+u+wA9CVZMXr51f/widvvOtGGLadkvXMhiXN5KnZw/pqMqGyUZlJSVbo/Pu/F337KaQUppBw9SeKgVCpuiw3MXbp49aEPECsAACAASURBVM//8//Yo/3Lj3/mm57yg5vc5l6jeKe5hLVbN/hGOKaFngFnQIEylAuBDFAgQIuByVEGXEKyEbkhmJze2eXv/dz7L+3vOdHmGDrWAmM3XQb9QQnOTyaTMDegdoKgH3v6K8+d2zz27TC5ErwBJU3I19QrV+Uvd3xytH/Py89+8RbM9W12TVBEDwfjqdir5TA5poVuGUQAayE1sDNGUTApK8Fy52LAgFsCklW+65OHz+FLafKCT//pPUKNBjUbZupknVzDDCITR2PRVvO59ca/O/9lJ89V45Q8QiBK1AHwVpVcYm2VJkade0MjBFjpnISc1U1HQuJhsU5s0epABIhmigZ1YCjADCYyEIp3GAKkzTLYE7pgPtm4Tk+Yn/+jJ794GFVVpVA8crWhqw05FxvKmhoKC6nZ1k9+9OqPLGUbeCleoapwIoIcS+2a6JkGkzZTIwTAshOXc6Z1qHIc40LPohFaQE4Fih465jJGR7Cb70lXxGWQdrkfoELHlQxQDSr4CfLzTzz1N898fmuRDBzCWp/HQ0UJDIqBedQ79nOdXHT3bb+07UKoIqfOgcWVLLFiASCIpGEYAJBmIRiYxK39vltfF8e00AtY4CqtQGJkVvqBYajVZUv0yhtv+onLrtxVtA66F0vwSgmZzYzmzSnw44984huf+Mx9upTWLk33cImWpc++MNWBtXSNHJebP9qx7de3f65BXSUjwCn3JQsyBMHgrFBJTGbgAmZiTN9K8EPhmBY6m0oGFIWgSLX4JZNP748XfOmKL0/shnH4yWu3L+bmuA5R+rGPDsTEKReGkSv/+RFPffFpj4/daL3Mc4IwSFxvxbSvirUj3TRf0dzbb93+t7deS0FGozEx5l1lQNaCvoCERVBAutJyUvEw7IW0ChzTQgfFlb8TopAlc3+3c+mVl16cJlbpPVsH1afusLddfzuwENR7hAyVCM8y4tShTXV875kvfPJxj8B0FNF8TTglIrIqpJI59/Mh9H3PFtQ2vG7bRy/cc/3CXD3igl41K7FY7SdACwZ7KFlWEJf7Ltr64pgQuhpgmhF7REDLypaAySR7ADDU4Amq37519y9cdY3BO8nZz7teOPg/ueuW39t5R8csZdkVWACAWqlSPwIWHN57/neeRFUUzUGocEtk5JzCTUdR8MEYi5mpZhEh+GwgK8JxS+7uqpo3XvG5G5eXhiwTouxCj0iKQUGliAw4OGHLWWjdzEkO5tgILyoykmNCdsiwGgpAkRgJqdauj/O/fMud796x7bQwt0xDyolz7CralEPLPuY9v3fOk19+/MIy9cECgzw0EoeeswNL+uel8Ys+9SfcB7dxvu/GTnOug1sfi0gA4I16waSfPPX4Ez/8lJduql0eTVw913p1IAEYZEUhDIDu+2F9sf5G/HVQOLni0DkwSo2ELIAQJKJG3q3VT2zf/oe33npSffI+JVcSi+dQVaTLIYZChU/45Wuu/tximjc3yRGqMArGRhAB5fi0hQ1/dO6LOp81dpUWrRCyddNRQvZQ6LnUak0zf/HO3T+37ULkVGo2QpOBlFNKBkDYciHDelQ5joVcFzNTyswuE4oUhyLqYYg28j7ctEg/vu3qC/dPHs1VGxP7IZeOPY2LevaUtIBckDaWK5YWv23LphO5icievDFUtLMUuJmU8bkbTqSq+sSO7U1VGzF15n1lWB9iz2wo8OYadZcu3T6u7HnHPS4VZQchOCIwCoyNqGh+GPpMrwJHudBXHDMprrO0IvUezoMRkwT30X2Lr7n6mu3L9EipxpSzK9la800uORARZNg7eNtji1sGCzeP8nWLd3/3aafMqbbOPFhLX7GHknd+rOl5W07ZHScX7b698fNgYStHcHeXVcWZdSI5p6p2BfKZpZ3HITx76wl7KBsQWEgNBGUpDDedSVtfi6Nc6ADMjCKkUnTJ8SARPHVRqr+6Y/QL267qaVCMEmstKA4Irm6TaRh4WI7jwKyyENw9ebKVh1eM+z2TPd9z0snRkiSXvPPZshGBKiKj/G82P+aa0f7Ll3YNyWeLtPp72B4RXIa4wGzEaspNrD67+8unbd54fn2CRItQEea+sJNC5BTrMddlfdyJw+Irp9e5yklZqmEepUGfx2j+6023/sw11/XYknQ8DKWCH8Uu5zxsnQMGoHGKEUrIPWeNdEKpR3nf8cPNf3nbnb95881CVReyyzoihVcGoMXMhoF/9/zvOX+wMaeO/LqJTmTmqhQrfe76ppAT6xQ/d/Wnr9xzl4jz5HownEM5kKW//jgKoy4rm0Mc+FlVC4svGJV2vtK9ufqP1970Jzv3bKQalhjC6JXgMCwoPUVCFcokVUOoNn00cS2cU21cyrEsz21Cu/e3H3/qq045HinFao5MPVAIhtIDw+wvHy2+8At/NWmxXrIaSWXiWs8yyD6rqmRPfm/EYzelDz/zRx9bBpNGA8gZRdKwPo3j0SV0i4VCBlwpAgEQs+YKg9b2NZN5hDvG/uevv+4Tu/Ydh2bSKOfDmyxShvPtJDV1aP73k07/li1uH9sGRWKuTFEM8KCchT+6586Xf/aDQxnCc5osc/AC4axQS5WwTvs1X7EUk65829YT//hbXrKlqLFlkFfuOVW0/lLS1+XT+aBYUMTKemFJgsiJK7hxsUbmSnXDfv2JK6746L7FreJK6C0d9gpfGvhSQqiM+vanr73q8knchL5jqTKDXOe8MXqmgvStCyf87lO+6x5anO+T81XJRE7gpBBSWAfXfMX8neD8h/fe+Atf/ASMydiT9pwqW38qx9E0GTUzMEmWkShb9kWKiKZUORjJRfv0VVddeqPyfPZd7ZFUAqCHp7mU05wNM6fkMWnrL7Y7v3vDlo1SLZs6NcolGjnHXkswevLCcR30YzuvH4R5sG81uaylZr9+kqL2V2kDDa7aczec++bNJ7fWeyIz5rXrlP11sw6sy0OEiAipd5grQchFa0XRiwO5P71j92u2fWE5DjfEkucyYiZqKB/2uQ+JO8o5O4irJV22L/3cTbf1kxKYE/cepWJQMSJpfSEtv/r4Z33fI56wO47N8fzESs0cc0jrRuhciCED1L9+w2ffd9eX2ZpCbDR1qQ0PhaNH6ABUqSoKxijm1pNwaoh/48s3/+x113qtRaOx8LiQZLZoetiv4Oios44kuKSLbnHDYNPf3rX8mzd/uQJEeMmW2ZkYqTHBjwWG/Kdnv/iZC1vH4yWufROt91TWyxQV2NCHaGni0gIPfurqj1+2656gLtu6FPrRNRlVmEE1J691tglVv3j1l/5i394mhy5QAA9MelUGecIyunCY7mbPNihGxpm1dn6/6iBxZ93bzjjl9Sef1qfFFMKcNVkzSBjUUt+ksLvYsz773ttSX5mrSZRAUz8ZXUELuVpCycu5aMEj5xc++JQXP37j/Ho0j+twyP+ag7clKawqGAtq9XeX6ocvveKP9+3jEoKjQZZKw1gTCbRgKafq8Bf45s2RsVoPMkRZaK245MLg12646RN72spvsIKoyYljARvqUuXKtlb25894yQbHDuTYY520DAAQXaKsy8mGxW+sBtvbe378un/c3f6r3avXeowPlfUt9AObbuq9/b01p/0LhIvb/KpLL//MUrdZ5+aoWjLfUNY0MhMoSZgEZ1o2HO7X9ZpzoXZYt5R7SblqGJ51sdjxb7rqc9csjualGTuDlb5EkKoglpyofcbCcb/32Odzp/stkl83NZe1h8bkOUwa3+ZuawhX3Hrzm6755IrK79+pfT3IfUqiLmooBQVQgqysvWUCP9gFpIzCkSFEpNTnbAzJFJ00aD6+b/8btl/6xRFOtq2lxOxbD0ogYxEywMwcgYkO27ISEQQuw5vDSntGGOBrm+zW4aX7dn/HCScdXxAhVaHei8sa4LLwWBefuulkEfePizsWtC5qNWzio1PixCBvjrN1K7H/KaIwhGGFS2ZmGMOH7ft3LYK/8/hHZl1mcdyDHEO10L3rdNMZkZkOi25McA6e4BWWS0ZJTjMIhzySOcg4xJgMPcU6sM+kVRmU8qe7d/3I5VftGW88ztd3D3b5ee7TqrdK60FzNa5UfcOVlxfvPJYLqQPEo0CbCQfaANgbn/DkHz/+cbtG+6o6LLI2yZXgmamwcs7epkzlAO7bkZ2IdKVBH7Nz7vdv/Oy7rv+idxuWkS0YCrJwmk6B38dUTEbVYGpkIKaVrhMGVah7EOugEFV4BiFHcGht4o1hf3DrXb92+3VVOb5J1fIgik5QbCGFzq9uuqyacGlRz4+68atOHvzWmU/kFBueU82GknyoEkELU+xC86pPf/ADe248pdrSZoVaDlbFrFUIiSJPXZ31wXtVr/zTmFKJXsIfn/mCFzzyZEUKFgDkEtl5wpTmNk6F0GE9SApcURNbeX9/tcuVqPXmoDH6Snpl7tQWfubm2//09jtOpmqvdAP4YSsjymJKDeVV1k9lg9Iv5Xmm7Cex/aXTH/nmR5/a5lj7sITJEB5ZyDGKKcrOPPm+z/7t9vFyhVpAPbrkrCIv2ZUpC1GvZA0R0QFHfMW6z6O6PY1OEv/xZ7/8kZsGoZiwN1UTmgn9qxGtYxMyBygJDGYwNbgH6Q1UNETukbhx3kjv7uh1117zzzv3BxkGJktdCrBUBpC+cn3Jq52HpCYUYP2ytwayqU93v+up57xkYWFsoyoMXIrwzuCgWMxpY9B/We5e+qk/66uBb7X32TxZX7xVoKmz6IdkSbHgWcejU47f/PGn/+BJzpYoeh4GMyKazo510+GjU+3ISyEhzsgtJgUpECnkkIe3OGyrIftel6+fxO/b9qV/2NVtIKduwqVjF0qWqpnb58oY/WD1g9Y9dZH6jXkIaToZL4XqLduu/vz+fuhrNybzdVaz0iuwIfh9SZ8+t+EPn/nSfrKvrUqfUtVjHlXH0xt2PHjPlpV9y7zZsArb9ux+wxc/1mVqOIQ+HWw0p8GAHsxURF0kAQxzSKZWYigu6ADGzGDQVx4j7gMTJH56tPxjl11xx3I5RarWDSB52RKIBi7s77r50AyjdhWt9n5ac+Qo6iQEAXrutspgV9te2S895/gTFmouk2JBHINhizFu8k1X0pOajdWgvuiuG+YwKOJ9m9LKYtI0sSJupftbQa+8YofKUWPv+Hieu3j37XvIXrj5MSKlgJiZ7rPoU1WKNBWuC9BHSAGHpMK8yPyxPbs+fucdtd94yN8OuSputMjVp+/ct5TLRs9t6mLQJomTQU6aOLmaSupJK6d1kXZVRy/Ky8IbLfeIUioxUM139e23baH/c9az5inBiUUehzxnrMWSKAFM/s1XXPiu265d4LkR9RtSitPXkdnMVhrEAyA1BjGzmY2gjfgQ88RJ6tJvnP3M15/+BCoiIiuuy8FVAdPAVAjdADL0lC32lasuWtIfvOyKLnXEhy7SMStEJMRe5H6nUG3aajS7jr/31PnfO/ObBilHMnGiYI8E9X2JwXM0ecWlH/7QHV8+LWyJMS57Iy0hhBhzTX4ixcW+Zk40XZFHVoCpd3AKUewf2GDf5LfPv+A1J5wyCjbIsvJ4FBTvvExHe4ypcF1MVZV8YefTjuh/+Jqr2pjnXSPOB3FfebCwEzmg8nufVbNpm/HPBbpscX9l4dlbGhVOWSrukUJ28CIEjIm/Z+s3fX7vbVf19wRwP6SFUY6sjaKQVeQyFETTtggjxYg5mQajqsC0dJavu/v2x5144umDjSm2IbioWntvSdVhGqana/+oAVAmISCnCTWv337Z7fvMudASUPIhD8csdJ8VP/BGmr4k6cWS5sPg7bfe8ud37PcGJ6oIcFBAAXRlQ9Gtgd7z5O969Pxcy3nLuIwXpFbrGkm515waF6xMxT06GBMuplRUYcpUZV7YsOVL0v385RfeMppUte/TBGxUoDHl6ej5MQ0XUR1KG9vY+F+/7uZP79bNTiwz3Z9J8UA0FytqZdpzLTwPg2U2fstNOz+/p3PUpohMSaCiAAtyjhQfUzfvOfOFmxTLJVfZ7RMKhTGoes6IeRrM4QNIbBFa+6CErnKJiMd5YzV3w2j0uks/PO6phLpWA9QPKvcgM+yH+a6trdDVrJhZLF1TN395+13vvPWurWFTZ5HVGD0JH/I4EH45wHTKPWifemZv3OMnr/3yVculcl1MWQArGYFz5VyfzNNz54//tXO+LQr3qWzmoUZDskAy8gXTlwPGxcwxM1MsseTiOHW9m+SNTfOJfXf81LYLB+Y6yrBkBKeisJVNotaQNfTR78/zdOw/36W3XHlD6wJsNCjDxLkLPatbWTx6wMEgIxDTgfjudG7OnaxjXzkTx3FXJ9eMF194wpYFaTpLAlaCkZJzvnB29NQNW9HbR8c7Bkmyc9rHmjhW/BX71K49jUlPilwqJTMl4lBXmS3lfq6av2LfrlFKLzjpMWPtOBYN/qAbc/9Nepjv1xoK/d4MWwC39e61V3zhBgw3lyiISeqY+6quoQcZbfpX9hvTtyRxCMQDyTJyTXPO7ViK1473fMuJJzlNwTklc3AMBhOnWDQ+98RH3bp312fbnRtQSR2yppCh4Kl7hM2SqRAFLyCOORoomZKgTszgi5fv3Oib87c8ohM4tfuN0dqFC9bKdbnfnJvZf7xm2y3LdUhtcWg5JBnN+1rGjgyHPoTBBKZp99GTh7LVpRR03aQaDj52T/7DG24YUD3Oray8oDJgSN7BFWD5d8//7udtPXVnGdW9JhCxc9OWuwv0Au+ciCzGtufinJNS5lUkc3EkTFXmX7/yk/+w6/b54kGpmK35hHS1hH5I/RX0yFAYjImISbPw23fc89E9S/Bp+P+39+bhll1XfeBvrbX3Pufe+6YaNZQkay5LsjXYeMDGBIMTg0OYm+ajISGYgIPNZDDGDo5JwAbHJg3+oBkSktDp9MDXNFMb7HRozGBDe8CzBsu2ZEmWSiqpqt507zl777VW/3FflcrlKvFKdV/VK6l+3/lU3/d077nn7PM7a6+99lq/JWRKwVhqyF48nHrOnqY6+uP2fovu4gyhkgFwkcYoxkh10gp+5b7HfuPB+1oZdR4IRNBKBkBqKjY/V/Ovf/lX3TI3XCFv4iiXrsYs8MKmbAI3q+7ekJCes9dbHGRuZk1oghI7XCizMiOTL7dQx5G2eeOH3/23Rx4xHihXdJmNDIAV1K4DcHZdsq0i+kn5J9pogMFBk2rcUfnTBx/+zc98Pkrg4/aNicgJeu6twJnimKN1rBhnmt79jk8/+O6DhxrkPq/DSZyjsUWHmDtfix2/cusrRqnmtbU2jqho5y4VMYMg0rQWZaX2udkOEbMvAoNK6fes6dzcXNvj/sn4Bz75ngcn/WBioW3WtThQOUBSW62Ep27UxRUTrAf0kyJCfv9q+2P33LuCuWny5/FJz2fzqs4+HtH0hrs/d8daaRIOkdUe5NURmJRiQx2+Yuclv3LTV1JrxQwURSTGiBSKq0765MRE7Tbryw7AzIYiBh2P15gkDec/vrz8Ux/60/UmKCEKVwCFOoeRMs5qi5izOlh9QoOgms2wTv4jn/jEfV27KzL5Maf9uN2f7bcBdLqY3s6xIp1jYdDdiT63Gn7o9jsPlNgGMI1VnEzEoYwsXkm/+dL9b9r//EO2WjkMerPqE3dw4ApxakJE15/r+zsRTuxM6y0TzANxtYsw/J3HPv1Tn/qLUAlkjVWJEObCLGe3oupsEN2PHhEWvenWfNjQ6z51/5+PVy5z6erKiZ/fxuvLM8SU7uu13zXyjx/0f/6xzw0zpKkZbIRqQWASSdV70R+95rYfuebWce48SmAK1QIzDVLntbj1adsZAgJXEJM3zGS5o3rY13cMRv/TXR/95c99JGmolq0fR4fTVKX77GHLie54XGlYCuc8Gc0t/fK9j/7HA/c/IyyO04QCTe03MzMzpolvvi0SJM4Qx3ywY/oQAJi5siTvFgbxzw6tvfruu1DmGrVAgBAcUrUxEYiyveXGr/qmfdccpPVJskikpeZAZpaq8/br4BwV0SAFWisAaQSJpfRzg53/4rPv/90H7uTQCvFEu7P/aM8C0d3dzc3cQEDi9yyvvfXzh3ZXm3hWhUK+NEr4VDXqU+qPiFfWjUI/SP4fH1l+6z0PsscMhaIagQQCctOuBsbP3/KSL2/25sm4ExU3dgTiZMRl25UjObkXdSZPLaSx1bJE7ZppckflV9313v/vwMEutcRMtZzlqOmWEP0YR48prlSzauYh31/qT9zxSemqyKjjcatDt2Rw9cdt3jQn8Slg0Y+Nw9RHx9EXmLzGNOyMRloX0fza/Q/9H48uJx8Xq4FoLDhCvTgnGvSu10T5tS/7tivDqOfaOMdce1gfafvleqFvTIMHlw7w7ENLY8Mijxx5yVLp5fs/+e77V1dblSCecVYrqrZktJTIUSoURIrCECA0KMuWfvgjH3uw4yG1PQWzRmgSpCeH0IbfMoUT7DxtrXAynDA7UeYqmciK8gjhcMw/fcfffuCxeY5jEIadEVHVvm9ofiwrXm5col963tftmsiDjWsMO116Vzp97cithlQIxODJjIKWRsm1wjRw5zpsRndO1n/ww+8+RMwqaSP/FO7eAyiAoaBia7Qdt4ToQQHEAKLaNdy6UyGtIm/51N23j7MTCjqhmogM1G+/MNlWY7WlqGgUpZEOvqSDR4BXf+YDj4yHpa4i8aI2GpXdIUicxuYv27HvLS/8avc1Nu0pNIrS6Pni3bGK1QzPQ5YPHnn4tR9+D1iKVjiKVyVvsuUIABGhbk1weWtyXVR74VAckdx41fMCx1+/77O/eu+hdQ5tCGYdgosRORWW8BQy3ptBpGCkRSuFiMoDjxwHD3fju1bWvnbfPoMV0wHYTCWwwQc51qQ3z+9oKv704AOG4Ext6YwCvmTbYbvVsAFIFmkY+rzKImgGHz70kGp5ycVXu2skrlRZOChNBHCLylsRWZ69NXV3C5XNNbLncJjzEun7Vo78288cqDRY5FEyNzEBu1MFbbmO1vZD7L2KOPNAncXWLQ867Kvzf3qkvOb2u4fsI+5dmkQBBqGYBRGO0r3h2hd+w75ri+cRRxifdPt5u7EcQPGqZhQTiofe2jR4x/1/+7/ec0eALLMmowIDIxmIeIvKqbbEbchwtiKGTvt5Kw/W9FMfvf0QLwxhZDlrFkjQAA8IgG9fmYctQsceXBqS2udOirbWcX6sqTuyvefI6i/cdRdoRIaJMJgNWiJQKfJwlfw/PPvrXrRnz2P9EW7mju1DHX/ybUj0bqDclYg2IBSrQwZb+Jef+qs/ePCzI8RxtZAVZGIIgG9N1HRLiN5Y6q0CGCRyHf7E7Xfftd7OMWrox1Iyg008G5iMaZrS9LRCjFFzqczKoGrCCAElmTarO3t/44GDv/vAQ3CrIBDc6xDWm68aLVAcJPzqs77mmh07D6+vTc+2/T31YMYp2qRQCMM2raOOLDxA+vo7/vyjBx8bcsMuVr0G1C1rQrwlRDfjYRo+llec01s/c8+fHDqc2oZqb0xO3HgjkJ6ycyWt50vX2RkiaoF7DhJDM/ToXeZOh6uqo7hMtlebuR0LYynzCgCRxGr2wPPOPWy5rOyf3/Hbt37DJcN4LCB7PLYh71NHHZmFaqx53LHHPoUdJPd13T//xJ88nKsG6QIBCEJmW2L4Zkyy6Shn8g79rmb4n+878JtfeDgM4jodNBqELE0fUs8Mqg2ZGHKN+rTz0lepH4YQqudszAGcOCYPjXSxr6M37rvy5cNh0uQAHFDmkIzMkieri2mAPHnWjqWff+7Xqurxmw/Tk29DogcZwGptTLTXQRMmHoox6qIPPzY+/L2f/IMV2NCYqyJbPqVY+BnhzIju2QFUZC8dKgqMyKmaUAL++rHuzfcd6MTnx92w7gpWTdxES1Mz1caEC1FMdvo65ec7xGKhxng10lgrE3mxgujrefG2vSvffe0iHMGJGD1XYibwAMIgigmINSYy/baLrvhXt7xY8zqn1i3BaIJCifk0W+2dBWTqI0IsSRFDrdy4k7mJcb9LB+954MGf++RfjdlYV406H1sHoPjGxm8uMIOjO7NrOKNBUUoKQ0XyyLAcqyjIwxCra1388c/fX3vaoW3mRgfLZWve1PMSQUJd5TKqo7lMfUNxzOOgaSAH33zps5ckdKFCADI+xb4ZuZP7q/bd/P37v+zR9UcWhftIrQdamch5olQKYCJkMVwqo//xgQ//+7s+iGapc5E2tH3NkaTCqvZJUCuA9sx+64yILg4ptTSAIUCqGxxu2Yhfc8dnbj+0ngKvVE1MQanfxiKaZxlsWoOyp4IWWjv0SzxY6de+7/I9L90532sflQqhwuJRDYDHPRM8XoKY3F/77Bd/w5XX3b/+4HwhjYlGwwlvv2rqU8Gocz0SdAfN/9Q9H/iD++8dxqYvWRsOVSurB0ngmhIIqGdkKM9smlNQSE5m0hNkqGnNOpL4tgeW//jg6pznTlbnY1qrhk4G229KPVdwKzUOnQtPvJGQHGsabl6UH7rqapVc1aWGo/FkOyGsfKyAEEDmvBP8zptffstFl4xrFystW21IzrWKyWbRgAU6YM7F5sroNR//b+878th80xwuHQtVFoOTokyzAuSMZqozGpEaDIYIq2TUQ6nMpfD7j67+4p0PL4h7jFSyb0yqYN12Rb7nDMShiplFrpxEinTSv2H//t1JzDAfF/pIYhCg2onxtqnoJIOEOIXYVLuCmv/5lm9aWByqllFGuzHOvP3pXqwsGnelGzoH40dqftVHfv/T60d2h+F6zq1bLaUwBkYA/BRi+ZvEGY2FocA1u0cMAIhP7uwmP3PHvZK9R+aQgu5Y8TqkHDiuydMuXn4qCCWqE/HIqRYrD2v/PZfuffnSQgdnDpiKclbPYKGTNEM4VrIEsMJI7YaFxd+84e9jUCnS+hd9YVtznZmPlEkCMIqVdC61d6+vUaGReQAAIABJREFUvO5D715WjNCiyxKZTUFQVzqzCPsZDURyyYEajxUYN2UVCz/x0TvuKXV+YMMwzGXcUVgMc6u2LIUpXCD6BsgoCwKbV8q93rxn8PorroZrhMDZGcEBcQfZE+rodoBwzIGc/eUX73vr1S9cDmPwtivIOBVcwiANCtGadQxFLfNp8f8++IXXf+DdXYNJRPEiRtU8kODMkv/OMOoS0sQBVF8L6H/mM/e9d6Xd4f2YbYzJXI5t6Fd0vcESuG/qefMAthrKZtJmrFGJNbSvfcZVFw9QRKcNPYispw6CJlMH4NRx8egGEAO9Tayu/dNrb3vjvuevlvEXf2r7GvVUfN1NQpqv3Hk3ENH1Mlq6+D8cuuNtH//zGBKrabAw9VrObGNxc/robh1x6zBygwa4gRkCVFcm5ZzwKw/c/7Y7Pj2gPQBVPsOg51nCtFiZHAyou8HBRIFn1UrQN7Ibjn9CDEC9Z44ttfeV8asvX/qlK6/PDQUrLKeZYq6YoB8gIueuCW3P3YB/5IO/95uPPnjppNEk7uYoJNAMCsnPspbKk4Y3q7z6b2/4e//s6mcnWK4lSeMEmpYe87RA0zGtqsemapU22QjAAEYHJDiDzCvDDELeYTyi9k8fHb/6jk+sdMPAVEPP27D65WRw8NReCvExARZ1Y5nNullOiJgcnXwtTEZ9czCEK4eT/3LjrVfPJyYEUzpNr0OBCg/wCi9AzN5IeFTLd/31H/3lY/e3g/nqJrUqW0gtdXrqDsXbC+RMbkHq7z7/W5+ztIMjmVLkUF2FSIhxtBbZ1YRPHOZTnHMTRFc3IaBaDcEcSYEAmK/3q8NBvKfDd/ztR26fDHZpU2k1N9rUbVf8clI4WXUDICDmwKDpQi5vaRtE54HqOI1o3P3Ks/d9y769q5UWqFRpT9e3K0B0gDZagHRgNR0V+fjkyD/+1Ls+8ejBuTDfOlfxStr2prLtEhtPCmJVpLLWXbzU/v6Lv/XG0agWKyGymziE2GnDkyEzBm/GO9sU0c1BZD0qIUUFM3qoI4sqeO5/+PjH/vjA6u52t9f1SLZCttXtDmeF4GIEp43aVvg0bEeYkXb948rgX7yQcrbHUF+5sOOXn3u1I4dJO0ldCsMnM4+ogwmqKKaDuIy6UDkw/9mhL3z7R/5QJjJxJJB6lcjbrvfNKVCCj9BOujJO5da5hT96zjfvHQ27MkkSHGARhTOYQVaViGgTrWM26aPDCXCl6uCggrW6JgEjn3vT3fe983P37xrusPERtEHBXNjOLLZ/1uBaSRi8wUh3n+7ShBlp63xJZHDj/TnE4TrX33nus66ec/dBgJu7BTwJPVF186nHowZAhcW8r+MmjP7PL3z2n3z0j+Z0lAVD5jXu49mVUnnyMLIAuDecDo6P/MMr9//vz/7aQajoamVQ2zAABTGDULEpBfnNmV4CHAQBs0px1EUfzdnc//bg+NfvuXupWehtXBpXoKifLywH0MoguoSKmK2pGCC0ztEE5jM5vgTTFBVqde0nr7zu6gWuYAIVceYns52pAIjJzeAubARWs1pdgjK++ZJrfu7Gr1qh1TaFQ9YnO2827EwpGMiL9/3iYMcfP3Tv6+94LyxiMHAJpkZgIjqtRM1NWXRHcY9OYGAd/dCJS3rfkdVX3nlX6XUl0nyh1RFRpwsejnDdhrKAJ8UYAyZnq6QV5gAMpO4cZsOJekJC1tESk2/d0/7WDTeP03rAKHWwVjO4dTrdIrKiNXIA4LWSSGUYKG60+FOGRw+v+dv/+lsP3D7y1mMkP09sEEfquyg8aQOtKzdh1Vd+8fqv+c7rnjmHyLkwgBSyKYOiz9B1QQ80biBHlRI83p/x3R/9iw+tNsOGlnoypDXNsXUqRjzSM82pPEtovZsfDBabdiCgY32/iDAjIV/ZMNLHjTAZgLdfe8O1CyXqnDokVAVLLX1oTjsxXw2uOUQGgroLFSBVgzB0GpPnR52//y/+4F2rX9jl7dYusmcKNnSBG4UQ1rk0mSYRv3/zVz3/8usXK7tqaWSCOnSOypvxXTbvoxvABKumgeO7Dx76tg/fuWcwqLUafBqbO74dxTYDD1yrh8OxH9qInYQnnfpFTf+/3PriZw55rWBk5KlXtuCDU93B6UZNTxBGNtvQjx5xJSJwAJ1gxWczEyrgQKiYhDqo/vk8/o4Pveujh44s+NCHVvMaQyQMM5DWJ5MR0nniuxP5u178Hbctzpvn6MIqxmSBNnP1Z0T03W2rupF1tJ2J3icLy8yjEnnUjTWmTh2C+Bs3Xf+K3YvOfSZuNCKUClOkeAoRqdMNQx/fj83xuKuuEGamjcYdG9qU7h5nVFVYaw0UsiC6d94xD25fXvmW9//OAbfUl2GTMKnLw9D2JpEFfmYJsGcRrpeI/OFLvvPy+VGn/ZwlMJv4ZkTdTmNkTyDw8dXm27Dy/HjE2qRWlaDGbapGUkx+6BmXf+1FixBb42JU3Dt1IsQEJaSTHk6ndxz/XUYj1AoNAg+FOUAiOAACBKfgFGe3sAmBQRDAS03coORbRwu/9IJXLFhpQaY8btO8iUwLNM8Tvx0AcfhUXv3RT/y3td4jQi9ZPfPm3MzTHtxjjZdO94vnEGkSYnLPHtG52mppXr535w9fuccJBTzE3MATURIPokzKp+ydhNM8jv+uOZmzO7sniEz3rxWogAIKzLIo2IpXcXiKYmiIx0G/cf7St17/kuWmZEaA9K4Ea4jG58kuEgByXNzu/sMD9/z0J94rCJldA2+y/9cZWZHjNW+3p9MyhaV6OMd5Csa11vb6ufhz+y9vQ3WYOKQCzh7YCWBUKj7dRfqS43Gl980dX/R1pmMHCCBzggs0PH7M7H7dogQlFEDdAR6BOh2/8tqbX3XVc49gfZC1EZ6QlY0W7OcHnFDG/d609KsPfvTn737fPAbAZvWOToPomxmQ7cn1cewX0ayy5jKwRX3nDZdd2VJvLlAQwJhwzijkqARl1qNG9oTDTvM41Xlc4T5Vggc2SiSMZqfLV4nhEAdgLmKmtVZuU4W+47qv+K5Lr1/2FXR9jLE4fGvkJbYCFU5tADAvo7d95oP/+Z5PSbfZddOZWvQz+fpZg6j3mCxguKZrb77mGS9aGtQcxAL5xuovITQAcmVHgxgcJz2mfTI3f5zqPCZsBAWqbdTKkTPPzlcWhKwFsBYcAEuxhJCKAxbYf/WZX/Oi3Rcd9kmbZS4O5fwRviS1Kt5ZN6wiYfTjd/zZ+w8/lDenpv8k58vzheJTENtQ5h+arH/fvp2v2rUbPdCCDZnMzFqlSmTgtdo/BsVKRkonP89p3vSpUkscmRzuTrChyLBpRiEI0zE3/QwXQlLBIU5QB+YAB1DI8DYKzLwsJH7bl3/Dt//V735+0u3sLRGdL9W8gQW1BiIlUKXDhtfd+V//nz3fFfnxDb5TDdppEN39ce9lejpmVrdpY2ODC/O5fQFibtcGK5FSyk1nq9LGkKmwJ4oPdfbSpeYtN+4v2nsKhq61UeE68jwObfSQ+/E/ed8n3ndPHjbz/RZr1LOndVpfNHfasVaWf/L5u15325W1UpEYoESeNFcZhg5o+o7Q4jS3kgIIGCA8PmG3TACyl8SV7dbS/tpzXvY9f/l/raaWa8PWTRLNm/QlW5TGCMUpBd0aqfInDYMbhQbWcxZu25L2tDsQzF0wXRMROU4ebTxP3uXNQVNp++CmTmvDdj5rUMYwhJV1u2a3/exVN8K5BAqMtgy6gFGXModSJ5HLGz7w8J/cb0vD3WtxnbcYFv0SDTVFajS07Ts+/Pnf/cxaQvXuiJCIaXEKXnNrQBNPl+VPgCQCDqDVZF+zsO8Xbv26SVmPrI3JfA3LeRLbJlbvrbJgvMm43dkFOaoZ+9Sk2jOHu4dfnAl3qpj6U4roJj0QxAHXrtR5o0xlYnEY+c0X7711V2SmoYHMe+IEr9HXXBYp/dIdR377ji/saYardUKaZpXUdarDum55IE2PcVmNMPZL3/iBu9736GRuwKu5ckEIUWFAyZiuKWeDDKyXnEgGBu3rd1567Vv3/72V/Nh6Q6i6GIaxUBZunX2Q3M5qH9DNwJkYMAZN+5+hPndhr/imHOmnFNGLFWqJayho50yOYH2J0lrtf+CKy7/lkosO49CgwiUpKBkAW5V+Z5U/P/DYm/7m7hBCyJOdNGjClgstxTTI5lWkqRh4HbT28IR+8n33f3atWYwlkxiCUkilEbJZ9hJ3LHgCWJhLAmX94etu+57rb12uazQIktX7wsxdJKyNz1AZaytA5jB1JqZQyAeJb168GE7HljRPsIh6ShF9aMN1r04SJK2mMseLD5f+Hy2NXnvdRT1pSwPwtCpQSFC97oB8bjL5kfcux3aQ5rAeU6215I62GCBf6GIJkjiWEA/6oUua9LED5U1/fX+xGCJqj6AZAWIMTGY1PkmhiXutRmiYMysxfvbGr/rmvdcdGD9GiVcaNEYAlCHbsErDiGAOEEmBXT5auHxuwZnoaHe3J1i+P6WIHqzhCg9aucuoeYJnjObetH/fPC175YENqoAKBMhSg8uDWX/kw3d9fjnRKnPvUrHc5CC7tvo6Oa9VIVJTIetlR1xaruPd883vfe7wWz58QNSbVFUbp2q1OOZm9sOEDp4kCAU1F+Jay26L77j573/lcPfDcV0YFd5U9lHTb7+cXgYZAWSmrlqeNb9rkFBPQfET/JmnFNHXkZcoVK9jtUvqMKbD77h2//754VquSaQ3D6aIDncCMYV3feq+99z52MLSwdSg7ecTDVItOqM6uidAbAaZe48kFIKqdJbicF1X5wbxnZ946Hc+e6Qj8UjmRglnKNxzPLJgVImADAQSVyW1YuXqQXzn877+8tgMSiGiDkrjCt52hRpEVEnJ4U5i+LK5vezgUzjoJ1D/KUX0mmqHLoEuwt4H8uTH9l/xD/ZK6WQu7Z6YS6LCDla4GgQFt15y2TULe9bLgPmRI+1YeSUwx63P5Ztk0Vjaal3BZJTBEx1bIzvmrBeqP/qBT3/sUSTtMoWMiDwzH90tgwHz6ChVvWkkBiJa0fWbdu7+1f1ftxbVvA6MtQ1zZdsR3eAVTkRCnCRcP9pJBMGmgtrnJdEpUxAE01AgFFTcWEjnhx6hS+r5Yb73m67c/cOXXGlQxOLuA3I2E2N3IQ7J3YI972L6vlvbWqTS7lHvrIOOKoUt901ZtClNcbBoKNG84Uhq44nHFCVPhq/9f++6N7cR3HgFuwIwjN3yNGtAAbOK/nR/t+EExrQMLUaJhMASQogyCF6+7qKL/83+l/Q553ZUOrdgDGpBRlZMRWIFubudu+oNdyfngaU1LzsiP3dxl3t22tTO2nlJdBtQn3U9YDzCRAtlQVXIkVLh6bDnpWfH3W+//DIJGCNFiieuBbEhSFswePV117/gCl3rUkzwqIRmrOesPIpCIG/joLvr4AM//pf3sKOjXoNJ12e2oSKVogSogxizi68PjL16J/a919z2E9c+Z60eFnK3aCE84pVIBqmpXTcg7tnpCVXythRElCR1tXCgy5r5pfmFzX/3vCS6ogAckaKhMW+bkaWgsSNWqmE0tHfcdMueVrrxynAjYRbHs3wKIvKMViY/dcu+xaRjil66iNDGk+//n437qoRukoWGiwvvuvfwGz74mVabZe20jbFUCCASrHjyStOuxTMDxRQqSR7/q5te9I0XXzbWdaRGiw9CY0466aNIhUUnsXNYjmRwR+C+TG5buiRic5mGAM5TonO1lFI0iRNjos7GqNp2A5ewUv2NV+x6/pIdArXSEOoxPnypJ5cYK9S9dO/uV9+6+8DqRCR634dz55uOTEvCQmnV2oVUfv3jB//LHY/MxcV1M5LQE1dmuBT0hDLDdpyVUbOWGERErft3z/2Hz92zZ3l8eD401tVBZQ5hLAoYiqYZaYE8CbhPJVjFtX/u4kVkcCffXFLaeUn06LGQZqo1JI3wvDZvAuxc7fvvfcZF//SyS7t+vEigJvYalQtOxnJ3LyFHWTDYD11z8Yv2LSwbUxtrPWc+qMYu0ajW2ldtrB+E0es+dM8HH1qd57DqkwbVHCqcXI5mAc8GgtwnJAi4IQ47ev2tL/uma0fNge6xpeGggwrEhfqG5xDWz52AI7ELca91V2qeOVoE4E6bTG8+L4luCNRnWDUhtjAKoWvt87T6Nbvmf+EZV9XAg9AKtHdvSROmU9yJoVYicvjAIqouRP7ZF17VolsmlyclmDUTrJMFy6vEzaBmGSbSNQ2ve98nP7dqc9xCu0iQAnhyRD99taNTgdwbEABeV4AhfFMY/cILvnZPE5brmiWe1CzE3GdqYncOa++IUExVL03t1Tt2AaBNx0DPT6IzBhwAJa1xgizD5Xz45lH35huuagQCTMQgIZFMmxWcCgkRDAatJ3z13uaV1+6u67luTYvuzSBps9bkEVI/mVBq+1x3sn9omf7Fn39kTFKZs3VQVJsWqs8QkQ2SUeeElTXG7OUVS1f861teisnKnJMM2pp1bmKPUm7Pnf66QqfyO1eOlnal1qtt/HkTOC+JrlpMaJxMk0Vu1rhZqPq2a55589ARQF4igoNJAcQcT8l0A8GhCQ0A8tc/9+r9C7u6/pxNzeLWdkMKa/O+g8ZrGMXi4aIw+IOH7e1/cSdRq659oyGYo5/h+5iJWdmSAjVHk6oeYu7KKy++4bW3ffUX+pXU2w6Pq3NpaaJ16zfUTgV1izG6+xU79wjgTGqblX06L4kekvZqgxoGlXpZjWuPvmb/C1+2Z6QlqasjhKnBE4AxdV1OCs5UCWIWFIXi/CC/6QVz1S0wQG0RZsoToUQtaT7DZlGbgRIbF7XYhQ5RuPQmWtFdFCdvuaf++48fbmSUXWESpwWpgG9EIo7BnoRCagIQQc4BIYERJJpxoFpX3nzl81599S3L/ZH1wKwyHoWpFggzQ7iY6jT/u1rc+twYoZQ9q6+/dO4KA9R6YvjmairOS6KjtgEefZgDPSz1FZdc/ENXzMNOEkP8O5Cm8oUCApysyy+75pLvunLnwc6Sr4zce41DQ67jYWq6GXUHOB1sPJ2Jp4u65bd85N73P/joyK1nhTcKwB3uX1wHP7MeXURUmgEE//LaF375ddfW0iWPVJnNyVH6bKUmCZHFCS6Ut97Si7HBdzdzl87vCIAIyRdp5zwRzkuiV3OSJtp4VXFbO/fWZ147ogmTHG1htYG/c2dYYQQDiTuYwJAF2A/fsu/KOZoAlvsQWbJzsnHWGM5i4qrz0SPAQ5BkMjqk+bXv/9x9q5MEX7XetdoX1zXPsLxrai8SYi393lH8T/tfdun86HBeG1B0BTOnlKIEcpRSqhvFoFtvB8jRWb1ysHj5aJGmCs+62bfrvCR6y5jYuARdzJN/s/+mS5q6qg0onED0v9O0iyMZw1GtCMDNYH1t+cbd4cdu3lt0NE6NWEcxqFImbs5NWI0BLr3XlneE9NHl7nV/c6DrqA1wy+6KaWtpx3SVNisQETOLQ5gBv2ww/O1bvn7vzsHhvD6K85Oa1U1VAQQW9idqtDRDMEtv+frRzp2RoFrcNj97n5dEJ+dAfMjsLTdc/5yddYXi/JOr8s4MwAkhEjQDgQdzhvzKZ176sksWlo0NlDFxCzGQ6tZ3vqYT7NPG0xENsNWulktk8fc+d+TnPvZAdHbyjdDLsULeM1uffilplIwp1ozs+rwdO/7ds17Gkte1Nm3rwtlV3UII5LC+zEpP7wngTAS7aWFXdACmxLRp8YTzkuhr1K1M6HsvueofX3YRc2FUyJey5O+GN1C2ggowhKxqwzFnBA+ve87SvqCTGgw1hMA6sXM3VoPkbDFEL5UunRu982Nf+PVPPpJCU22jsbTj8cL1GTowbKVjDzGSWm/dy3fv+8XrX9rpuORMQNM07t6XzMxCfBYKNYrpfIg3L+4FwZmIGeCn8s6ooLx49+LPXr6vUmm6dg4+9icTbTDAUBICjB3EYt5bSm12PP/i8Jqb9rRmqZmzOmFqTmONOzNsSCGt2XhAqZTETU+wUYo//cGH3vtwX02LTytutuTazLkF9YQAGoRW4f/sult+8LpncV/z6jg4URCFcxAwbfWOMhFVq3ua4Q0Lu6ZdFiKCK3hzL9h5SfQdLj93/d75OS3rpY8BNQ7BeopkoyewcGQWYaggR4aQQBIzvCRA8apbLr5h78LqmrFo5SHp1hcLn0pnNKWu5EYG1dHpw4hLUvy1f/aJrOZ+wkT2ZF74k1yIu7uLxKK1UUMMnVmswRlvvunFz7nx2fOptaoiAqJsWmAIZ4NLu5rBpcORwdx12lxtkztnM9NePPaXMznhiecXLs4DR+FaLDQ07C2r229ct/fapZ1VWWJIwlmKk51KceqJ6giZp/InEDQgQgQDCAGAjuYpveFFC7vatTVqo/eBzlm5MHnhFC2PnYmwN46LtvTQuv33f3Zfria2bnC4qQPOM8kXn0ZdHIjCEBjQbqjEeEP89otvXY45h8BjCyKOEplm6NrRtAHsVIh8us42Z9Cq9s/ffWkwXwNLaBmGTd/s9rbo64Vam7gOcxwkjJFR6w9cedmNV1w1BMQRWAC4EbBZVdXNQABjQ61fsXvf8y69KpaSUWfVqu7JoDKZkzARgY0kt8KQ8IH7Hn3/3Q9VHlUnc53OB6crJ/YE2FATm7awJQeBgQC6/fDDqkruYBLQhurY7GzcNGy6YaGYpofBG+Zrhjvh1OBoKhdv9na3NdGlTd73IQSGKMF18pKLdv74Nft2kFBfvS/krqYz91AJsADU8bCHlp76dSfUcyevTIjTjV4yMpTK42SUnXctzu3etw+AmzG7bfRVnlmTV97oE8HkICInsBOc/vKxz8OdzVSI1BlQ+GyfwjRSPG2LaQSFV7eFEG9bugRuCRsxps2/W9ua6DnWkGM0XmXV7DuG/duv2z9voKpCHgeJRAAICwGmMzRlBjAG8UCXb1893DSJQeeyLQSxT/9TiQAPKBY702+8rL1ph0jpGq5TB98cs32mRBtyteq1osKxkusHVx8OkmCu7DAjZwdvpu3EJjE91UYjbzgAIlKznSntn98NAtsGxZ8icXQuxqN22WyOmj5O3v7M264Z8rgqmDhFMBnDaaNjNs8un0+cS4WCH3N+qC+IwVw21Z94a2CwSs6qoVKiSNSsK+Yj/3dX7hh6T0RODJXgANUZqxhMT+Ze3czMCZ9eP3xPtxZFyE3ZaNqXc6Y4fqXHzCIyJfRVc0tLgYzr0euaNo/e1Dm3dZemeYwes5WRDI+UlZ+57tqvX1jKVCiJWZ3Gj80sshDgZsSzI6LDiBx0aLXQumg0j9xkz6fbxGhWYHcIo1QmdjbzXMsL9oQvu+wi1ewhKRABUnCYZZJxhYbHJfEsIijwwSMH1koZxcbJiUhAxsQm7j6r33ba2GplZgK5u6pqrbct7WWgHt0YM/jmH8i2JvrY864cHpLD333ppT94yUXjvBYHQ4EKb+wPTVkOcye4V95Uf7LNwBJxAN27tsY8DDwBqCLT1m/+nRTJqWdycxUnq2Y8DP7tV+0Sh7MAIIAFZnBAlGdlYW2jixiICQZ2mgDvP3hfdIG7k5GTu6sTY5bt149l5m00N6tG5gJ6/tJlcBcCEfFRB32TebrbmugB9VFpnrUgP3rdVYHNhnNcs5MStTj6NF1BBOapYtNsUAVcAbY71w6tMLUEr5UbOVe1Ncm5QwBQI4XqQX1+EF9x9R7hiRqJC2wNHEmajFn2hzY4HGYOAZnDvYPdeeSRAUX3DXOqcHWLPkOdJeBok0MA5GDiEIRiun6006pK3Ph7hTNhkxPJ5ojupqRBWQP3qMNSks25xwyGpLLhUbE5pmQ7kzaFOM5Fm9hoKT3yMzc957qGM1QBCSnUguMCILRh0WZmzAEoONA6bHTnIyWWnFPoamnQnCuBWa/Sx2LMYW08GS6s94e++6qdFw1GEy1CzASSOTjI0VJymZn30qp0AQHkWrwq4uBvDj90Z7fOG0IJBPVJIsD6aSRwRp4dVfLABFRCW6o24UhZ++r5Z1wzGhjztGclju56bHJptil6eIUlQoAoWiGPdhiHR3Jop+w46eftNMI+wMk0radcX6EDP3nJDf8gLnjJiQOM+wiRLa/pbBwq6XDpwZMdsS6GUKUtpfBZ2fz7UiToXAqd6mhp0HerV6b6lVfvha2DEjaagn1Rdtes4AI2D04w1iYeQn/PyoGgeTHNn+IbsxmfmDzXamaIlJQrIQwHu3bMn0kEc1Ot5BRwVFZnRBVjn2hJqxoLV5wsxHO6K6J6shfD3UccRoxq6ETnSHp4R76owCZ6v58RSi2UI9O9HtjioBtbCCKwzWb5zxgWpVvvluaGXa25UhtlLiJiojUEZiGmaS08ATj27yx+F4URHei0uOtA4lpvy0Qtn3w/0mck4uWWiMjMQhAp1ges1P4aH5VkQsT8ZEKZm+uZWAApYIIHEBR96bs2LhrqSSt6TkrcJ8CpXgzVybqEZLGtVLzEJkAZ2TDYYqIbKkFysSQCoOSaIsHlHEUYM/qECJNSNMYAR+nWqYWjmT71rUo48woNIGRyYVdY1jqHFnIqQs/GfzRkBilMwHBUQoYPu5pDnAov8ulH2DZF9A6IqAxoCYHhggkmqtoi4UtEsNxPmxCnCv0yVRQmD0jcoRLQeABmP0efeD3WV44EuE8M3tKcAqGHnSsNr1I4xlKVoyhKwXqCRIhhgFM3MzlzjFEHCDZdEapNkGugObD7xubrlDuPd7aaVYM7IjIvrlECKjo2Z26BqvVJv9ibs+gO5IwQIFwMxCAtctTAn/Tjp3cRp/offUGIOSDCyBRM1lNtZMv5Ni3TMpBbpULcZJSBzbCJ+WmjukUyVAJbZVTEVjHrjZqT/CqIChsRBwWmiVulIp7Ccs9wgGyacgQARiCDukk4ycrTTtGd6wRslug9OU3XPlPjS6h0yvX96b5up7pBsAciAAABKklEQVQCcsBg4uTmxAxCgcYtf75jQ+KOkKQaJMBROYuGc5GSDgAwRXBAvDIYykowAW11dHjq7k/1LYIRDBBSGJ8ykDubTVmHslNPTrWGEAwUHJUQjt3vcQuRTa5JNjtSBEoOqCFYByRI2KyixmZOfnKMyYfsFUgQKsgBMYJRMLu8pZNiaAD7GDYUKoRoCHDwaUhazhgUHLVCObAYQnEEUg0b8actuyhyQBECCtyZiVDNVbg5pWWakQCBMRwiEDn6oHujdtpr24/mK54e/TZn0S/gAs5zbOukrgu4gFnhAtEv4GmBC0S/gKcFLhD9Ap4WuED0C3ha4ALRL+BpgQtEv4CnBS4Q/QKeFrhA9At4WuAC0S/gaYELRL+ApwUuEP0Cnha4QPQLeFrg/we0yGrvM7acMQAAAABJRU5ErkJggg==;fontStyle=1;imageBorder=default;fontSize=16;" vertex="1" parent="1">
          <mxGeometry x="420" y="420" width="60.44" height="58" as="geometry" />
        </mxCell>
        <mxCell id="xjqkXMvStgawzbpbz8GZ-4" value="gRPC&lt;div style=&quot;font-size: 16px;&quot;&gt;Messenger Service&lt;/div&gt;" style="rounded=1;whiteSpace=wrap;html=1;fontStyle=1;fontSize=16;" vertex="1" parent="1">
          <mxGeometry x="660" y="418" width="120" height="60" as="geometry" />
        </mxCell>
        <mxCell id="xjqkXMvStgawzbpbz8GZ-6" value="" style="shape=flexArrow;endArrow=classic;startArrow=classic;html=1;rounded=0;exitX=0;exitY=0.5;exitDx=0;exitDy=0;fillColor=#dae8fc;strokeColor=#6c8ebf;fontStyle=1;fontSize=16;" edge="1" parent="1" source="xjqkXMvStgawzbpbz8GZ-3" target="xjqkXMvStgawzbpbz8GZ-1">
          <mxGeometry width="100" height="100" relative="1" as="geometry">
            <mxPoint x="330" y="420" as="sourcePoint" />
            <mxPoint x="430" y="320" as="targetPoint" />
            <Array as="points">
              <mxPoint x="240" y="450" />
            </Array>
          </mxGeometry>
        </mxCell>
        <mxCell id="xjqkXMvStgawzbpbz8GZ-7" value="User" style="image;aspect=fixed;perimeter=ellipsePerimeter;html=1;align=center;shadow=0;dashed=0;spacingTop=3;image=img/lib/active_directory/laptop_client.svg;fontStyle=1;fontSize=16;" vertex="1" parent="1">
          <mxGeometry x="80" y="580" width="45" height="50" as="geometry" />
        </mxCell>
        <mxCell id="xjqkXMvStgawzbpbz8GZ-8" value="Admin" style="image;points=[];aspect=fixed;html=1;align=center;shadow=0;dashed=0;image=img/lib/allied_telesis/computer_and_terminals/Laptop.svg;fontStyle=1;fontSize=16;" vertex="1" parent="1">
          <mxGeometry x="80" y="420" width="42" height="42.599999999999994" as="geometry" />
        </mxCell>
        <mxCell id="xjqkXMvStgawzbpbz8GZ-9" value="" style="shape=flexArrow;endArrow=classic;startArrow=classic;html=1;rounded=0;exitX=1.048;exitY=0.704;exitDx=0;exitDy=0;fillColor=#dae8fc;strokeColor=#6c8ebf;exitPerimeter=0;entryX=0.25;entryY=1;entryDx=0;entryDy=0;fontStyle=1;fontSize=16;" edge="1" parent="1" source="xjqkXMvStgawzbpbz8GZ-8" target="xjqkXMvStgawzbpbz8GZ-1">
          <mxGeometry width="100" height="100" relative="1" as="geometry">
            <mxPoint x="430" y="459" as="sourcePoint" />
            <mxPoint x="253" y="273" as="targetPoint" />
            <Array as="points">
              <mxPoint x="191" y="450" />
            </Array>
          </mxGeometry>
        </mxCell>
        <mxCell id="xjqkXMvStgawzbpbz8GZ-10" value="" style="shape=flexArrow;endArrow=classic;startArrow=classic;html=1;rounded=0;fillColor=#dae8fc;strokeColor=#6c8ebf;entryX=1;entryY=0.5;entryDx=0;entryDy=0;exitX=0;exitY=0.75;exitDx=0;exitDy=0;fontStyle=1;fontSize=16;" edge="1" parent="1" source="xjqkXMvStgawzbpbz8GZ-16" target="xjqkXMvStgawzbpbz8GZ-7">
          <mxGeometry width="100" height="100" relative="1" as="geometry">
            <mxPoint x="430" y="459" as="sourcePoint" />
            <mxPoint x="253" y="273" as="targetPoint" />
            <Array as="points">
              <mxPoint x="280" y="533" />
              <mxPoint x="250" y="533" />
              <mxPoint x="250" y="605" />
            </Array>
          </mxGeometry>
        </mxCell>
        <mxCell id="xjqkXMvStgawzbpbz8GZ-13" value="" style="shape=image;verticalLabelPosition=bottom;labelBackgroundColor=default;verticalAlign=top;aspect=fixed;imageAspect=0;image=https://www.docker.com/wp-content/uploads/2023/05/symbol_blue-docker-logo.png;fontStyle=1;fontSize=16;" vertex="1" parent="1">
          <mxGeometry x="382.61" y="370" width="37.39" height="26.3" as="geometry" />
        </mxCell>
        <mxCell id="xjqkXMvStgawzbpbz8GZ-19" style="edgeStyle=orthogonalEdgeStyle;rounded=0;orthogonalLoop=1;jettySize=auto;html=1;entryX=0;entryY=0.75;entryDx=0;entryDy=0;startArrow=classic;startFill=1;fontSize=16;" edge="1" parent="1" source="xjqkXMvStgawzbpbz8GZ-16" target="xjqkXMvStgawzbpbz8GZ-3">
          <mxGeometry relative="1" as="geometry">
            <Array as="points">
              <mxPoint x="380" y="464" />
              <mxPoint x="400" y="464" />
            </Array>
          </mxGeometry>
        </mxCell>
        <mxCell id="xjqkXMvStgawzbpbz8GZ-16" value="8000&#xa;" style="fontStyle=1;labelPosition=right;verticalLabelPosition=middle;align=left;verticalAlign=middle;spacingLeft=2;fontSize=16;" vertex="1" parent="1">
          <mxGeometry x="360" y="510" width="30" height="30" as="geometry" />
        </mxCell>
        <mxCell id="xjqkXMvStgawzbpbz8GZ-23" style="edgeStyle=orthogonalEdgeStyle;rounded=0;orthogonalLoop=1;jettySize=auto;html=1;entryX=0;entryY=0.5;entryDx=0;entryDy=0;fontSize=16;" edge="1" parent="1" source="xjqkXMvStgawzbpbz8GZ-20" target="xjqkXMvStgawzbpbz8GZ-4">
          <mxGeometry relative="1" as="geometry">
            <Array as="points">
              <mxPoint x="555" y="500" />
              <mxPoint x="620" y="500" />
              <mxPoint x="620" y="448" />
            </Array>
          </mxGeometry>
        </mxCell>
        <mxCell id="xjqkXMvStgawzbpbz8GZ-20" value="50051" style="fontStyle=1;labelPosition=right;verticalLabelPosition=middle;align=left;verticalAlign=middle;spacingLeft=2;fontSize=16;" vertex="1" parent="1">
          <mxGeometry x="540" y="434" width="30" height="30" as="geometry" />
        </mxCell>
      </root>
    </mxGraphModel>
  </diagram>
</mxfile>
